<svg xmlns="http://www.w3.org/2000/svg" viewBox="0 0 438.59 47.08"><title>fiddle</title><g id="Layer_2" data-name="Layer 2"><g id="Layer_1-2" data-name="Layer 1"><path d="M33.22,11.57c0,.24-.21.35-.64.35q-2.38,0-7.25-.41T18,11.09a14.47,14.47,0,0,0-3.57.23c-.78.36-1.18,1.38-1.18,3.06,0,2,.51,3.16,1.54,3.44a8.4,8.4,0,0,0,1.94.16q2.2,0,6.58-.24t6.59-.24q1.05,0,1,5.61,0,4.88-.35,5.68a.85.85,0,0,1-.86.57,12.59,12.59,0,0,0-2-.22c-2.28-.22-5.72-.32-10.33-.32q-2.24,0-2.52,0c-1.08.17-1.63.63-1.63,1.37,0,3,.13,6.49.39,10.43.21,3.54.32,5.13.32,4.75,0,.55-.67.87-2,1,.36,0-.59,0-2.84,0a43.54,43.54,0,0,1-7.68-.41q-.93-.22-.93-1c0-2.36.08-5.91.24-10.63S1,26,1,23.65q0-4.2-.38-10.58C.26,6.5.05,3,0,2.49L0,2.1c0-.53.3-.79,1-.79,1.57,0,4,0,7.12.09s5.57.1,7.16.1,4.26-.13,7.67-.38,6-.39,7.66-.39c1.07,0,1.66.44,1.79,1.31s0,2.29.13,4.11c0,.47.18,1.37.41,2.71A16.59,16.59,0,0,1,33.22,11.57Z"/><path d="M49.92,22.35c0,2.5.07,6.28.2,11.31s.19,8.81.19,11.32c0,.43-.1.69-.29.8a8.3,8.3,0,0,1-.83.13,47.78,47.78,0,0,1-5.55.25,40.87,40.87,0,0,1-5.93-.25c-.61-.13-.92-.46-.92-1,0,.34.09-1.53.29-5.61q.57-12.92.57-17,0-3.42-.22-10.24T37.2,1.88c0-.47.25-.7.74-.7.66,0,1.65,0,3,.09s2.32.1,3,.1,1.63,0,2.92-.1,2.25-.09,2.91-.09.93.23.93.7c0,2.28-.13,5.69-.37,10.23S49.92,20.07,49.92,22.35Z"/><path d="M98,23.3a23.88,23.88,0,0,1-6,16.26q-5.32,6.15-15,6.47-1.85.07-10.17.07c-1,0-2.61,0-4.7-.1s-3.66-.09-4.7-.09c-.62,0-.93-.25-.93-.74q0-3.51.28-10.53T57.1,24.1q0-3.66-.27-11T56.55,2.17c0-.45.31-.71.93-.8,1.51-.17,4-.25,7.43-.25q9.81,0,12.72.28c5,.51,9,1.79,11.82,3.83a19.35,19.35,0,0,1,6.35,8A23.85,23.85,0,0,1,98,23.3Zm-12.21,0a12.3,12.3,0,0,0-3.22-8.8A11.17,11.17,0,0,0,74,11q-4.9,0-4.91,1.3c0,1.26,0,3.14-.06,5.66S69,22.34,69,23.59s0,3.09.06,5.56.06,4.34.06,5.6q0,1.36,5.1,1.37a10.81,10.81,0,0,0,8.67-3.67A13.57,13.57,0,0,0,85.82,23.3Z"/><path d="M144.57,23.3a23.92,23.92,0,0,1-6,16.26q-5.33,6.15-15,6.47-1.86.07-10.17.07c-1.05,0-2.61,0-4.71-.1s-3.66-.09-4.7-.09c-.61,0-.92-.25-.92-.74q0-3.51.27-10.53t.27-10.54q0-3.66-.27-11T103.1,2.17c0-.45.31-.71.92-.8q2.27-.26,7.43-.25,9.83,0,12.72.28,7.56.77,11.83,3.83a19.41,19.41,0,0,1,6.34,8A23.85,23.85,0,0,1,144.57,23.3Zm-12.21,0a12.3,12.3,0,0,0-3.22-8.8,11.14,11.14,0,0,0-8.6-3.53c-3.28,0-4.91.43-4.91,1.3,0,1.26,0,3.14-.07,5.66s-.06,4.41-.06,5.66,0,3.09.06,5.56.07,4.34.07,5.6q0,1.36,5.1,1.37a10.84,10.84,0,0,0,8.67-3.67A13.62,13.62,0,0,0,132.36,23.3Z"/><path d="M178.81,46.45c-1.83,0-4.21-.05-7.14-.13l-7.14-.16L155,46c-1,0-2.33,0-4.12-.12a1,1,0,0,1-.92-1q0-3.48.11-10.41c.08-4.62.11-8.09.11-10.41q0-3.71-.22-11.08t-.22-11.08c0-.46.31-.7.95-.7s1.59,0,2.86.1,2.2.09,2.82.09,1.74,0,3.12-.11,2.42-.11,3.13-.11c.31,0,.46.2.44.61l0,.41q-.39,6-.86,18l0,8.42c0,2.72,0,4.71,0,6l.06.76a.51.51,0,0,0,.48.48h.83c1.91,0,4.78-.1,8.59-.3s6.68-.3,8.59-.3c.58,0,.86.24.86.73a48.42,48.42,0,0,1-.79,9.41c-.11.55-.33.88-.67,1A5.81,5.81,0,0,1,178.81,46.45Z"/><path d="M217.86,36a41.63,41.63,0,0,1-.54,5,19,19,0,0,1-1,4.75,1.2,1.2,0,0,1-1.05.6,8.37,8.37,0,0,1-1-.09Q212,46,200.71,46l-7.3,0-7.27,0q-1,0-1-.93c0-2.38.13-5.95.4-10.73s.4-8.34.4-10.72-.13-6.94-.39-13.55q-.09-2.55-.35-7.62l0-.45c0-.49.23-.73.8-.73,1.57,0,3.94,0,7.09.13s5.52.12,7.1.12,3.89,0,7-.12,5.46-.13,7-.13c1.11,0,1.74.41,1.91,1.24.11.49.28,2,.5,4.45s.33,4,.33,4.51-.21.67-.63.67l-.67,0q-8.49-.7-15.24-.7c-1.13,0-1.82.26-2.07.79a9.88,9.88,0,0,0-.16,2.46,4.56,4.56,0,0,0,.63,2.87,2.79,2.79,0,0,0,2.08.6c.21,0,.62,0,1.24,0s1.13-.05,1.53-.05q4,0,8.13-.23l1.75-.15a14.52,14.52,0,0,1,1.72-.13c.51,0,.77.24.77.73a46.81,46.81,0,0,0-.58,4.88c-.16,1.7-.25,3.4-.25,5.1,0,.42-.31.64-.92.64l-2.87-.32c-1.21-.13-4-.19-8.29-.19h-3.38q-1.31,0-1.53.63,0,.16,0,2a9.09,9.09,0,0,0,.32,3.12q.54,1.22,4.08,1.44h4.65c1.13,0,2.8-.1,5-.3s3.89-.31,5-.31C217.63,34.84,217.86,35.23,217.86,36Z"/><path d="M276.61,18.23q0,7.72-4,12.5-4.35,5.07-12,5.07c-.85,0-2.13,0-3.84-.14s-3-.15-3.84-.15-1.37.4-1.37,1.18c0,1,.09,2.44.28,4.37s.29,3.38.29,4.34c0,.48-.22.73-.67.73-1.3,0-3.24,0-5.83-.11s-4.54-.11-5.84-.11a.82.82,0,0,1-.92-.93q0-3.54.11-10.63c.08-4.73.11-8.27.11-10.63q0-10-.86-21l0-.45c0-.4.28-.65,1-.73,1.65-.21,5.31-.32,11-.32q5,0,9.6.13,7.54.22,12.18,4.75T276.61,18.23Zm-12.72.51q0-7.42-7.23-7.42c-3.4,0-5.19.19-5.36.57s-.22,2.73-.22,7.36c0,.66,0,1.64.08,2.92s.08,2.26.08,2.92c0,.42,1.91.64,5.74.64Q263.9,25.73,263.89,18.74Z"/><path d="M293.92,22.35c0,2.5.07,6.28.2,11.31s.19,8.81.19,11.32c0,.43-.1.69-.29.8a8.3,8.3,0,0,1-.83.13,47.78,47.78,0,0,1-5.55.25,40.87,40.87,0,0,1-5.93-.25c-.61-.13-.92-.46-.92-1q0,.51.29-5.61.57-12.92.57-17,0-3.42-.22-10.24t-.22-10.23c0-.47.24-.7.73-.7.66,0,1.65,0,3,.09s2.32.1,3,.1,1.63,0,2.92-.1,2.25-.09,2.91-.09.93.23.93.7q0,3.42-.37,10.23C294.05,16.66,293.92,20.07,293.92,22.35Z"/><path d="M342.48,45.11c0,.38-.27.65-.8.8a36.87,36.87,0,0,1-5.93.25,40.61,40.61,0,0,1-5.87-.25,1.72,1.72,0,0,1-1.37-1.44q-1.08-4.59-1.69-4.91c-.34-.15-3.18-.22-8.54-.22-3.61,0-5.54.09-5.77.29s-.76,1.47-1.21,3.41c-.41,1.76-.89,2.72-1.47,2.87a54,54,0,0,1-7.27.25c-3.25,0-4.87-.31-4.87-.92s2.4-7.35,7.2-20.37q7.82-21.15,8.48-23.24c.26-.81.55-1.22.89-1.22.58,0,1.46.06,2.66.16s2.1.16,2.7.16,1.42,0,2.53-.11,2-.11,2.51-.11q.6,0,1.11,1.05,1.56,3.34,9.12,23T342.48,45.11Zm-22.61-29c-.44.93-1.2,3-2.26,6.09A32.68,32.68,0,0,0,315.89,28c0,.38.64.59,1.91.64.66,0,1.74.06,3.25.06s2.18-.17,2.33-.51a1.32,1.32,0,0,0,.06-.45,30.66,30.66,0,0,0-1.46-5.8A44.62,44.62,0,0,0,319.87,16.07Z"/><path d="M388.38,2.17q0,3.63-.3,10.92t-.3,11V45q0,.87-.93.87-.77,0-2.31.06t-2.31.06q-.83,0-2.49-.12c-1.1-.09-1.93-.13-2.48-.13-.39,0-.84-.35-1.38-1.05Q373.6,41.64,365.56,31q-2.21-3-6.7-8.74a1.35,1.35,0,0,0-.48-.38.88.88,0,0,0-.25.7q0,3.7.21,11.1c.13,4.93.2,8.62.2,11.09,0,.74-.28,1.12-.86,1.12h-11c-.61,0-.92-.33-.92-1,0-2.3.11-5.76.33-10.4s.34-8.1.34-10.42-.1-6.1-.31-11-.3-8.51-.3-10.93c0-.47.42-.7,1.25-.7,1.23,0,2.75-.09,4.55-.26.43,0,1.27-.18,2.52-.41a15.23,15.23,0,0,1,2.52-.29c.26,0,.65.36,1.18,1.09L369.7,17.92c1.06,1.46,2.67,3.61,4.81,6.44.53.65,1,1,1.37,1s.42-.83.42-2.48q0-3.34-.37-10.08t-.36-10.1c0-.79.22-1.18.67-1.18,1.27,0,3.19-.05,5.77-.16s4.49-.16,5.77-.16Q388.38,1.18,388.38,2.17Z"/><path d="M438.59,23.59a23.35,23.35,0,0,1-6.34,16.67,23,23,0,0,1-32.74-.06,23.23,23.23,0,0,1-6.38-16.61,23.36,23.36,0,0,1,6.38-16.67,22.74,22.74,0,0,1,32.67,0A23.41,23.41,0,0,1,438.59,23.59Zm-12.08-.06a12,12,0,0,0-2.9-8.13,10.06,10.06,0,0,0-15.37.12,12,12,0,0,0-3,8.07,11.94,11.94,0,0,0,2.84,8.13,9.92,9.92,0,0,0,7.81,3.41,9.8,9.8,0,0,0,7.65-3.6A11.81,11.81,0,0,0,426.51,23.53Z"/></g></g></svg>