<svg xmlns="http://www.w3.org/2000/svg" viewBox="0 0 706.27 117.06"><defs><style>.cls-1{stroke:#000;stroke-miterlimit:10;}</style></defs><title>foot</title><g id="Layer_2" data-name="Layer 2"><g id="Layer_1-2" data-name="Layer 1"><rect x="0.5" y="108.56" width="705.27" height="8"/><path d="M705.27,109.06v7H1v-7H705.27m1-1H0v9H706.27v-9Z"/><path class="cls-1" d="M262.53.7H266V24.35h11.34v2.87H262.53Z"/><path class="cls-1" d="M294.84,14.79H284.53v9.56H296v2.87H281.1V.7h14.33V3.57h-10.9V12h10.31Z"/><path class="cls-1" d="M304.75,18.88,302,27.22h-3.54l9-26.52h4.13l9,26.52H317l-2.83-8.34Zm8.7-2.68-2.6-7.63c-.59-1.73-1-3.31-1.37-4.84h-.08c-.4,1.57-.83,3.19-1.34,4.8l-2.6,7.67Z"/><path class="cls-1" d="M324.55,1.05A36,36,0,0,1,331.12.5c3.66,0,6,.67,7.67,2.17a6.59,6.59,0,0,1,2.09,5,7,7,0,0,1-5,6.77v.12c2.05.71,3.27,2.6,3.9,5.35a41.83,41.83,0,0,0,2,7.28h-3.54a34.86,34.86,0,0,1-1.77-6.34c-.79-3.65-2.2-5-5.31-5.15H328V27.22h-3.42ZM328,13.13h3.5c3.66,0,6-2,6-5,0-3.43-2.48-4.92-6.1-5a14,14,0,0,0-3.38.31Z"/><path class="cls-1" d="M345.72,27.22V.7h3.74L358,14.12a76.85,76.85,0,0,1,4.76,8.61l.08,0c-.32-3.55-.4-6.77-.4-10.91V.7h3.23V27.22h-3.46l-8.42-13.46a84.58,84.58,0,0,1-5-8.85l-.12,0c.2,3.34.27,6.53.27,10.94V27.22Z"/><path class="cls-1" d="M371.61,1.05A33.59,33.59,0,0,1,377.87.5c3.42,0,5.62.59,7.28,1.93a5.58,5.58,0,0,1,2.2,4.68,6.31,6.31,0,0,1-4.49,5.83V13a6.84,6.84,0,0,1,5.47,6.66A7.14,7.14,0,0,1,386.09,25c-1.85,1.69-4.84,2.48-9.17,2.48a39.34,39.34,0,0,1-5.31-.32ZM375,11.91h3.11c3.62,0,5.75-1.89,5.75-4.44,0-3.11-2.36-4.33-5.83-4.33a14.71,14.71,0,0,0-3,.23Zm0,12.71a18.11,18.11,0,0,0,2.88.16c3.54,0,6.8-1.3,6.8-5.15,0-3.63-3.11-5.12-6.84-5.12H375Z"/><path class="cls-1" d="M396.36.7V27.22h-3.42V.7Z"/><path class="cls-1" d="M402.34,1.05A36,36,0,0,1,408.91.5c3.66,0,6,.67,7.68,2.17a6.59,6.59,0,0,1,2.08,5,7,7,0,0,1-5,6.77v.12c2,.71,3.26,2.6,3.89,5.35a42.48,42.48,0,0,0,2.05,7.28h-3.54a33.2,33.2,0,0,1-1.77-6.34c-.79-3.65-2.21-5-5.32-5.15h-3.22V27.22h-3.43Zm3.43,12.08h3.5c3.66,0,6-2,6-5,0-3.43-2.48-4.92-6.1-5a14,14,0,0,0-3.38.31Z"/><path class="cls-1" d="M423.51,1.05A49.81,49.81,0,0,1,430.79.5c4.92,0,8.42,1.14,10.75,3.31s3.73,5.23,3.73,9.52-1.33,7.87-3.81,10.31-6.58,3.82-11.73,3.82a54.4,54.4,0,0,1-6.22-.32Zm3.43,23.46a22.53,22.53,0,0,0,3.46.19c7.32,0,11.29-4.09,11.29-11.25,0-6.26-3.5-10.23-10.74-10.23a19.21,19.21,0,0,0-4,.35Z"/><path d="M202.27,78a11.29,11.29,0,0,1-4.62.83c-4.94,0-8.65-3.12-8.65-8.86,0-5.48,3.71-9.19,9.14-9.19a9.45,9.45,0,0,1,4.16.78l-.55,1.84a8.33,8.33,0,0,0-3.53-.73c-4.11,0-6.83,2.63-6.83,7.22,0,4.29,2.46,7,6.72,7a8.91,8.91,0,0,0,3.69-.73Z"/><path d="M204.94,69.92c0-1.48,0-2.75-.1-3.92h2l.07,2.46H207a3.78,3.78,0,0,1,3.48-2.75,2.57,2.57,0,0,1,.65.08V68a3.07,3.07,0,0,0-.78-.08,3.22,3.22,0,0,0-3.07,2.93,6.72,6.72,0,0,0-.1,1.07v6.7h-2.26Z"/><path d="M214.44,72.7c.06,3.09,2,4.36,4.32,4.36a8.19,8.19,0,0,0,3.48-.65l.39,1.64a10.31,10.31,0,0,1-4.19.78c-3.87,0-6.18-2.55-6.18-6.34s2.24-6.78,5.9-6.78c4.1,0,5.19,3.61,5.19,5.92a8,8,0,0,1-.08,1.07Zm6.71-1.64c0-1.45-.6-3.71-3.17-3.71-2.31,0-3.33,2.13-3.51,3.71Z"/><path d="M233.14,78.57,233,77h-.08A4.67,4.67,0,0,1,229,78.85a3.58,3.58,0,0,1-3.85-3.61c0-3,2.7-4.7,7.56-4.67v-.26a2.59,2.59,0,0,0-2.86-2.91,6.31,6.31,0,0,0-3.27.93l-.52-1.5a7.78,7.78,0,0,1,4.13-1.12c3.85,0,4.78,2.62,4.78,5.14v4.7a17.31,17.31,0,0,0,.21,3Zm-.34-6.42c-2.49-.05-5.32.39-5.32,2.83a2,2,0,0,0,2.15,2.19,3.12,3.12,0,0,0,3-2.11,2.29,2.29,0,0,0,.13-.73Z"/><path d="M241.34,62.39V66h3.28v1.74h-3.28v6.78c0,1.55.45,2.44,1.72,2.44a4.87,4.87,0,0,0,1.32-.16l.11,1.72a5.67,5.67,0,0,1-2,.31,3.2,3.2,0,0,1-2.47-1,4.68,4.68,0,0,1-.88-3.28V67.74h-2V66h2V63Z"/><path d="M248.3,72.7c0,3.09,2,4.36,4.31,4.36a8.13,8.13,0,0,0,3.48-.65l.39,1.64a10.21,10.21,0,0,1-4.18.78c-3.87,0-6.18-2.55-6.18-6.34s2.23-6.78,5.9-6.78c4.1,0,5.19,3.61,5.19,5.92a8,8,0,0,1-.08,1.07Zm6.7-1.64c0-1.45-.59-3.71-3.17-3.71-2.31,0-3.32,2.13-3.5,3.71Z"/><path d="M270.89,60.13V75.32c0,1.12,0,2.39.11,3.25H269l-.11-2.18h0a4.64,4.64,0,0,1-4.28,2.46c-3,0-5.38-2.57-5.38-6.39,0-4.18,2.57-6.75,5.63-6.75a4.21,4.21,0,0,1,3.8,1.92h.05v-7.5Zm-2.28,11a4.54,4.54,0,0,0-.1-1,3.37,3.37,0,0,0-3.3-2.65c-2.37,0-3.77,2.08-3.77,4.86,0,2.55,1.25,4.65,3.71,4.65a3.44,3.44,0,0,0,3.36-2.73,4.37,4.37,0,0,0,.1-1Z"/><path d="M280.26,61.3a21.71,21.71,0,0,1,4.13-.37c2.26,0,3.72.39,4.81,1.28a3.65,3.65,0,0,1,1.45,3.09,4.16,4.16,0,0,1-3,3.84v0a4.52,4.52,0,0,1,3.61,4.39,4.7,4.7,0,0,1-1.48,3.51c-1.22,1.11-3.19,1.63-6.05,1.63a27.56,27.56,0,0,1-3.51-.2Zm2.26,7.16h2.06c2.39,0,3.79-1.24,3.79-2.93,0-2.05-1.56-2.86-3.85-2.86a9.56,9.56,0,0,0-2,.16Zm0,8.39a11.86,11.86,0,0,0,1.9.11c2.34,0,4.49-.86,4.49-3.41,0-2.38-2.05-3.37-4.52-3.37h-1.87Z"/><path d="M295.19,66,298,73.42c.28.84.6,1.82.8,2.58h.05c.24-.76.5-1.72.81-2.63L302.1,66h2.42l-3.43,9c-1.64,4.31-2.75,6.52-4.31,7.87A6.31,6.31,0,0,1,294,84.31l-.57-1.93a6,6,0,0,0,2-1.11,6.93,6.93,0,0,0,1.92-2.55,1.52,1.52,0,0,0,.19-.54,2.22,2.22,0,0,0-.16-.6L292.7,66Z"/><path d="M312.62,78.57l.67-5.09h-2.13V72h2.37l.49-3.77h-2.23V66.65h2.46l.68-5h1.5l-.64,5h2.7l.67-5h1.53l-.65,5h2.13v1.53h-2.36L319.34,72h2.24v1.53h-2.47l-.68,5.09h-1.55l.67-5.09h-2.7l-.68,5.09ZM317.78,72l.5-3.77h-2.7l-.5,3.77Z"/><path d="M329,78.57V71.14l-5.53-10.08H326l2.47,4.83c.68,1.33,1.2,2.39,1.74,3.61h0c.5-1.14,1.09-2.28,1.77-3.61l2.52-4.83h2.57l-5.87,10v7.46Z"/><path d="M348.45,72.18c0,4.65-3.22,6.67-6.26,6.67-3.4,0-6-2.49-6-6.46,0-4.21,2.75-6.68,6.23-6.68S348.45,68.33,348.45,72.18Zm-10,.13c0,2.75,1.58,4.83,3.82,4.83s3.81-2,3.81-4.88c0-2.13-1.06-4.83-3.76-4.83S338.48,69.92,338.48,72.31Z"/><path d="M361.85,75.14c0,1.3,0,2.44.1,3.43h-2l-.13-2h-.05a4.75,4.75,0,0,1-4.16,2.33c-2,0-4.34-1.09-4.34-5.5V66h2.29v7c0,2.39.72,4,2.8,4a3.19,3.19,0,0,0,3.22-3.25V66h2.29Z"/><path d="M374.05,73.06l-1.82,5.51h-2.34l5.95-17.51h2.73l6,17.51h-2.41l-1.87-5.51Zm5.74-1.76-1.71-5c-.39-1.15-.65-2.18-.91-3.2h-.06c-.26,1-.54,2.11-.88,3.17l-1.71,5.07Z"/><path d="M387,69.92c0-1.48,0-2.75-.1-3.92h2l.08,2.46h.1a3.78,3.78,0,0,1,3.48-2.75,2.57,2.57,0,0,1,.65.08V68a3,3,0,0,0-.78-.08,3.2,3.2,0,0,0-3.06,2.93,5.68,5.68,0,0,0-.11,1.07v6.7H387Z"/><path d="M396.46,72.7c.05,3.09,2,4.36,4.31,4.36a8.19,8.19,0,0,0,3.48-.65l.39,1.64a10.25,10.25,0,0,1-4.18.78c-3.87,0-6.18-2.55-6.18-6.34s2.23-6.78,5.89-6.78c4.1,0,5.2,3.61,5.2,5.92a10.09,10.09,0,0,1-.08,1.07Zm6.7-1.64c0-1.45-.6-3.71-3.17-3.71-2.31,0-3.32,2.13-3.51,3.71Z"/><path d="M416.61,73.06l-1.82,5.51h-2.34l5.95-17.51h2.73l6,17.51h-2.42l-1.87-5.51Zm5.74-1.76-1.72-5c-.39-1.15-.65-2.18-.91-3.2h-.05c-.26,1-.54,2.11-.88,3.17l-1.72,5.07Z"/><path d="M430,66l1.66,6.39c.37,1.4.71,2.7.94,4h.08c.28-1.28.7-2.63,1.11-4L435.8,66h1.92l1.95,6.28c.46,1.51.83,2.83,1.11,4.11h.08a39.29,39.29,0,0,1,1-4.08L443.61,66h2.26l-4.05,12.57h-2.08l-1.92-6c-.44-1.4-.8-2.65-1.12-4.13h-.05a36.82,36.82,0,0,1-1.14,4.15l-2,6h-2.07L427.62,66Z"/><path d="M449.17,72.7c.05,3.09,2,4.36,4.31,4.36a8.19,8.19,0,0,0,3.48-.65l.39,1.64a10.25,10.25,0,0,1-4.18.78c-3.87,0-6.18-2.55-6.18-6.34s2.23-6.78,5.89-6.78c4.1,0,5.19,3.61,5.19,5.92A10.69,10.69,0,0,1,458,72.7Zm6.7-1.64c0-1.45-.6-3.71-3.17-3.71-2.31,0-3.33,2.13-3.51,3.71Z"/><path d="M460.59,76.23a6,6,0,0,0,3,.91c1.66,0,2.44-.83,2.44-1.87s-.65-1.69-2.33-2.31c-2.26-.81-3.33-2-3.33-3.56,0-2,1.64-3.69,4.34-3.69a6.34,6.34,0,0,1,3.09.78l-.57,1.66a4.89,4.89,0,0,0-2.57-.72c-1.35,0-2.11.78-2.11,1.71s.76,1.51,2.39,2.13c2.18.83,3.3,1.92,3.3,3.79,0,2.21-1.71,3.77-4.7,3.77A7.14,7.14,0,0,1,460,78Z"/><path d="M482.56,72.18c0,4.65-3.22,6.67-6.26,6.67-3.4,0-6-2.49-6-6.46,0-4.21,2.75-6.68,6.23-6.68S482.56,68.33,482.56,72.18Zm-10,.13c0,2.75,1.58,4.83,3.81,4.83s3.82-2,3.82-4.88c0-2.13-1.06-4.83-3.76-4.83S472.59,69.92,472.59,72.31Z"/><path d="M485.44,69.4c0-1.3,0-2.36-.1-3.4h2l.1,2h.08a4.33,4.33,0,0,1,3.94-2.31A3.71,3.71,0,0,1,495,68.23h.05a5.23,5.23,0,0,1,1.41-1.64,4.28,4.28,0,0,1,2.78-.88c1.66,0,4.12,1.09,4.12,5.46v7.4h-2.23V71.45c0-2.41-.88-3.87-2.73-3.87a3,3,0,0,0-2.7,2.08,3.89,3.89,0,0,0-.18,1.14v7.77h-2.23V71c0-2-.89-3.46-2.63-3.46a3.41,3.41,0,0,0-3,3.4v7.59h-2.23Z"/><path d="M508.37,72.7c.05,3.09,2,4.36,4.31,4.36a8.19,8.19,0,0,0,3.48-.65l.39,1.64a10.25,10.25,0,0,1-4.18.78c-3.87,0-6.19-2.55-6.19-6.34s2.24-6.78,5.9-6.78c4.1,0,5.19,3.61,5.19,5.92a10.69,10.69,0,0,1-.07,1.07Zm6.7-1.64c0-1.45-.6-3.71-3.17-3.71-2.31,0-3.33,2.13-3.51,3.71Z"/></g></g></svg>