<svg xmlns="http://www.w3.org/2000/svg" viewBox="0 0 685.09 16.15"><defs><style>.cls-1{stroke:#000;stroke-miterlimit:10;stroke-width:0.75px;}</style></defs><title>keyset</title><g id="Layer_2" data-name="Layer 2"><g id="Layer_1-2" data-name="Layer 1"><path class="cls-1" d="M.38.62h8v1.6H2.31v5H7.94V8.78H2.31v6.75H.38Z"/><path class="cls-1" d="M11.12,13.31a6.65,6.65,0,0,0,3.19.89c2.49,0,3.27-1.58,3.26-2.79,0-2-1.85-2.87-3.72-2.87H12.76V7.07h1.09c1.41,0,3.2-.73,3.2-2.42,0-1.16-.73-2.17-2.52-2.17a5.17,5.17,0,0,0-2.87,1L11.13,2A6.83,6.83,0,0,1,14.9.91C17.74.91,19,2.58,19,4.34a3.6,3.6,0,0,1-2.65,3.39v0a3.72,3.72,0,0,1,3.19,3.69c0,2.3-1.8,4.31-5.25,4.31a7.07,7.07,0,0,1-3.72-1Z"/><path class="cls-1" d="M48.94,14.86a13.38,13.38,0,0,1-4.58.82,7.63,7.63,0,0,1-5.58-2,7.61,7.61,0,0,1-2.07-5.54c0-4.45,3.06-7.7,8.06-7.7a9.51,9.51,0,0,1,3.73.68L48,2.72a7.67,7.67,0,0,0-3.3-.63c-3.61,0-6,2.25-6,6s2.27,6,5.76,6a6.28,6.28,0,0,0,2.56-.4V9.25H44V7.7h4.91Z"/><path class="cls-1" d="M51.85,13.3a6.52,6.52,0,0,0,3.18.9c2.5,0,3.28-1.59,3.25-2.78,0-2-1.83-2.88-3.71-2.88H53.48V7.08h1.09c1.41,0,3.2-.73,3.2-2.43,0-1.15-.73-2.17-2.52-2.17a5.28,5.28,0,0,0-2.87,1L51.87,2A6.85,6.85,0,0,1,55.63.91c2.83,0,4.11,1.68,4.11,3.43a3.56,3.56,0,0,1-2.65,3.38v0a3.74,3.74,0,0,1,3.21,3.69c0,2.3-1.8,4.31-5.25,4.31a7.29,7.29,0,0,1-3.74-1Z"/><path class="cls-1" d="M80.09,10.84l-1.55,4.69h-2L81.62.62h2.32L89,15.53H87l-1.59-4.69ZM85,9.34,83.52,5c-.33-1-.55-1.85-.77-2.72h0c-.22.89-.46,1.79-.75,2.7L80.49,9.34Z"/><path class="cls-1" d="M91,13.3a6.6,6.6,0,0,0,3.19.9c2.5,0,3.28-1.59,3.25-2.78,0-2-1.83-2.88-3.71-2.88H92.63V7.08h1.09c1.41,0,3.2-.73,3.2-2.43,0-1.15-.73-2.17-2.52-2.17a5.28,5.28,0,0,0-2.87,1L91,2A6.85,6.85,0,0,1,94.78.91c2.83,0,4.11,1.68,4.11,3.43a3.56,3.56,0,0,1-2.65,3.38v0a3.74,3.74,0,0,1,3.21,3.69c0,2.3-1.8,4.31-5.25,4.31a7.29,7.29,0,0,1-3.74-1Z"/><path class="cls-1" d="M121.32.82a18.42,18.42,0,0,1,3.52-.31,6.18,6.18,0,0,1,4.09,1.08,3.15,3.15,0,0,1,1.24,2.64,3.55,3.55,0,0,1-2.52,3.27v0a3.85,3.85,0,0,1,3.07,3.74,4,4,0,0,1-1.26,3c-1,1-2.72,1.39-5.15,1.39a22.52,22.52,0,0,1-3-.17Zm1.92,6.1H125c2,0,3.23-1.06,3.23-2.5C128.22,2.68,126.89,2,125,2a8.87,8.87,0,0,0-1.71.13Zm0,7.15a9.89,9.89,0,0,0,1.62.09c2,0,3.83-.73,3.83-2.9s-1.75-2.88-3.85-2.88h-1.6Z"/><path class="cls-1" d="M133.09,13.3a6.52,6.52,0,0,0,3.18.9c2.5,0,3.28-1.59,3.25-2.78,0-2-1.83-2.88-3.71-2.88h-1.09V7.08h1.09c1.41,0,3.2-.73,3.2-2.43,0-1.15-.73-2.17-2.52-2.17a5.28,5.28,0,0,0-2.87,1L133.11,2a6.85,6.85,0,0,1,3.76-1.1C139.7.91,141,2.59,141,4.34a3.56,3.56,0,0,1-2.65,3.38v0a3.74,3.74,0,0,1,3.21,3.69c0,2.3-1.79,4.31-5.25,4.31a7.29,7.29,0,0,1-3.74-1Z"/><path class="cls-1" d="M169.14,15a9.44,9.44,0,0,1-3.94.71c-4.2,0-7.36-2.65-7.36-7.54A7.41,7.41,0,0,1,165.62.38a7.94,7.94,0,0,1,3.54.66l-.46,1.57a7.07,7.07,0,0,0-3-.62c-3.5,0-5.82,2.24-5.82,6.15,0,3.65,2.1,6,5.73,6a7.79,7.79,0,0,0,3.14-.62Z"/><path class="cls-1" d="M176.88,15.53V11.62H170.2V10.33l6.42-9.18h2.1v8.94h2v1.53h-2v3.91Zm0-5.44V5.29c0-.75,0-1.51.07-2.26h-.07c-.44.84-.8,1.46-1.19,2.12L172.17,10v.05Z"/><path class="cls-1" d="M197,.82a27.31,27.31,0,0,1,4.1-.31c2.76,0,4.73.64,6,1.86a6.88,6.88,0,0,1,2.1,5.35,7.86,7.86,0,0,1-2.15,5.8c-1.39,1.39-3.69,2.14-6.59,2.14a31.59,31.59,0,0,1-3.5-.17ZM198.89,14a11.72,11.72,0,0,0,1.94.12c4.12,0,6.35-2.31,6.35-6.33,0-3.52-2-5.75-6-5.75a11.08,11.08,0,0,0-2.25.19Z"/><path class="cls-1" d="M217,15.53V11.62h-6.69V10.33l6.42-9.18h2.1v8.94h2v1.53h-2v3.91Zm0-5.44V5.29c0-.75,0-1.51.06-2.26H217c-.45.84-.8,1.46-1.2,2.12L212.31,10v.05Z"/><path class="cls-1" d="M244.83,8.54H239v5.38h6.46v1.61h-8.38V.62h8V2.23H239V7h5.8Z"/><path class="cls-1" d="M253.32,15.53V11.62h-6.68V10.33l6.42-9.18h2.1v8.94h2v1.53h-2v3.91Zm0-5.44V5.29c0-.75,0-1.51.07-2.26h-.07c-.44.84-.79,1.46-1.19,2.12L248.61,10v.05Z"/><path class="cls-1" d="M278.09.62h8V2.23H280v5h5.64V8.78H280v6.75h-1.93Z"/><path class="cls-1" d="M294.2,15.53V11.62h-6.69V10.33l6.42-9.18H296v8.94h2v1.53h-2v3.91Zm0-5.44V5.29c0-.75,0-1.51.06-2.26h-.06c-.45.84-.8,1.46-1.2,2.12L289.48,10v.05Z"/><path class="cls-1" d="M325.63,14.87a13.88,13.88,0,0,1-4.58.82,7.69,7.69,0,0,1-5.58-2,7.69,7.69,0,0,1-2.08-5.56c0-4.44,3.08-7.7,8.08-7.7a9.27,9.27,0,0,1,3.72.69l-.47,1.57a7.8,7.8,0,0,0-3.3-.64,5.58,5.58,0,0,0-6,6c0,3.78,2.28,6,5.75,6a6.39,6.39,0,0,0,2.57-.39V9.25h-3V7.7h4.91Z"/><path class="cls-1" d="M333.9,15.53V11.62h-6.68V10.33l6.41-9.18h2.11v8.94h2v1.53h-2v3.91Zm0-5.44V5.29c0-.75,0-1.51.07-2.26h-.07c-.44.84-.8,1.46-1.2,2.12L329.19,10v.05Z"/><path class="cls-1" d="M356.39,10.84l-1.55,4.69h-2L357.92.62h2.32l5.09,14.91h-2.06l-1.59-4.69Zm4.89-1.5L359.82,5c-.33-1-.55-1.85-.77-2.72H359c-.22.89-.46,1.79-.75,2.7l-1.46,4.32Z"/><path class="cls-1" d="M372.85,15.53V11.62h-6.68V10.33l6.41-9.18h2.11v8.94h2v1.53h-2v3.91Zm0-5.44V5.29c0-.75,0-1.51.07-2.26h-.07c-.44.84-.8,1.46-1.2,2.12L368.14,10v.05Z"/><path class="cls-1" d="M392.93.82a18.42,18.42,0,0,1,3.52-.31,6.18,6.18,0,0,1,4.09,1.08,3.12,3.12,0,0,1,1.24,2.64,3.55,3.55,0,0,1-2.52,3.27v0a3.85,3.85,0,0,1,3.07,3.74,4,4,0,0,1-1.26,3c-1,1-2.72,1.39-5.15,1.39a22.52,22.52,0,0,1-3-.17Zm1.93,6.1h1.74c2,0,3.23-1.06,3.23-2.5,0-1.74-1.32-2.43-3.27-2.43a8.74,8.74,0,0,0-1.7.13Zm0,7.15a9.76,9.76,0,0,0,1.61.09c2,0,3.83-.73,3.83-2.9s-1.75-2.88-3.85-2.88h-1.59Z"/><path class="cls-1" d="M410.25,15.53V11.62h-6.68V10.33L410,1.15h2.1v8.94h2v1.53h-2v3.91Zm0-5.44V5.29c0-.75,0-1.51.07-2.26h-.07c-.44.84-.79,1.46-1.19,2.12L405.54,10v.05Z"/><path class="cls-1" d="M440.75,15a9.39,9.39,0,0,1-3.93.71c-4.21,0-7.37-2.65-7.37-7.54A7.42,7.42,0,0,1,437.24.38a8,8,0,0,1,3.54.66l-.47,1.57a7.07,7.07,0,0,0-3-.62c-3.49,0-5.82,2.24-5.82,6.15,0,3.65,2.11,6,5.73,6a7.84,7.84,0,0,0,3.15-.62Z"/><path class="cls-1" d="M451.06,2.79h-5.49L445,6.48a8.19,8.19,0,0,1,1.17-.09,6.08,6.08,0,0,1,3.1.78,4.09,4.09,0,0,1,2.06,3.69c0,2.81-2.24,4.91-5.36,4.91a7.07,7.07,0,0,1-3.58-.88l.49-1.48a6.46,6.46,0,0,0,3.07.79,3.17,3.17,0,0,0,3.41-3.12c0-1.85-1.26-3.18-4.14-3.18a16.09,16.09,0,0,0-2,.15l.93-6.9h6.88Z"/><path class="cls-1" d="M468.58.82a27.06,27.06,0,0,1,4.09-.31c2.76,0,4.73.64,6,1.86a6.84,6.84,0,0,1,2.1,5.35,7.86,7.86,0,0,1-2.15,5.8c-1.39,1.39-3.69,2.14-6.59,2.14a31.27,31.27,0,0,1-3.49-.17ZM470.5,14a11.85,11.85,0,0,0,1.95.12c4.11,0,6.35-2.31,6.35-6.33,0-3.52-2-5.75-6-5.75a11.12,11.12,0,0,0-2.26.19Z"/><path class="cls-1" d="M491.2,2.79h-5.48l-.56,3.69a8.48,8.48,0,0,1,1.18-.09,6.07,6.07,0,0,1,3.09.78,4.09,4.09,0,0,1,2.06,3.69c0,2.81-2.23,4.91-5.35,4.91a7.11,7.11,0,0,1-3.59-.88l.49-1.48a6.51,6.51,0,0,0,3.08.79,3.17,3.17,0,0,0,3.4-3.12c0-1.85-1.26-3.18-4.13-3.18a16.44,16.44,0,0,0-2,.15l.93-6.9h6.88Z"/><path class="cls-1" d="M521.13,8.54h-5.8v5.38h6.46v1.61h-8.38V.62h8.05V2.23h-6.13V7h5.8Z"/><path class="cls-1" d="M532.19,2.79H526.7l-.55,3.69a8.19,8.19,0,0,1,1.17-.09,6.1,6.1,0,0,1,3.1.78,4.09,4.09,0,0,1,2.06,3.69c0,2.81-2.24,4.91-5.36,4.91a7,7,0,0,1-3.58-.88l.49-1.48a6.46,6.46,0,0,0,3.07.79,3.17,3.17,0,0,0,3.41-3.12c0-1.85-1.26-3.18-4.14-3.18a16.09,16.09,0,0,0-2,.15l.93-6.9h6.88Z"/><path class="cls-1" d="M549.7.62h8V2.23h-6.11v5h5.64V8.78h-5.64v6.75H549.7Z"/><path class="cls-1" d="M568.38,2.79h-5.49l-.56,3.69a8.48,8.48,0,0,1,1.18-.09,6.07,6.07,0,0,1,3.09.78,4.09,4.09,0,0,1,2.06,3.69c0,2.81-2.23,4.91-5.35,4.91a7.11,7.11,0,0,1-3.59-.88l.49-1.48a6.51,6.51,0,0,0,3.08.79,3.17,3.17,0,0,0,3.4-3.12c0-1.85-1.26-3.18-4.13-3.18a16.44,16.44,0,0,0-2,.15l.93-6.9h6.89Z"/><path class="cls-1" d="M597.24,14.87a13.88,13.88,0,0,1-4.58.82,7.7,7.7,0,0,1-5.58-2A7.69,7.69,0,0,1,585,8.16c0-4.44,3.07-7.7,8.07-7.7a9.19,9.19,0,0,1,3.72.69l-.47,1.57A7.75,7.75,0,0,0,593,2.08c-3.63,0-6,2.26-6,6s2.28,6,5.75,6a6.35,6.35,0,0,0,2.57-.39V9.25h-3V7.7h4.91Z"/><path class="cls-1" d="M608.08,2.79h-5.49L602,6.48a8.19,8.19,0,0,1,1.17-.09,6.1,6.1,0,0,1,3.1.78,4.09,4.09,0,0,1,2.06,3.69c0,2.81-2.24,4.91-5.36,4.91a7,7,0,0,1-3.58-.88l.48-1.48a6.51,6.51,0,0,0,3.08.79,3.17,3.17,0,0,0,3.41-3.12c0-1.85-1.26-3.18-4.14-3.18a16.09,16.09,0,0,0-2,.15l.93-6.9h6.88Z"/><path class="cls-1" d="M628,10.84l-1.55,4.69h-2L629.53.62h2.32l5.09,14.91h-2.05l-1.6-4.69Zm4.89-1.5L631.43,5c-.33-1-.55-1.85-.77-2.72h0c-.22.89-.46,1.79-.75,2.7L628.4,9.34Z"/><path class="cls-1" d="M647,2.79h-5.49L641,6.48a8.19,8.19,0,0,1,1.17-.09,6.1,6.1,0,0,1,3.1.78,4.09,4.09,0,0,1,2.06,3.69c0,2.81-2.24,4.91-5.36,4.91a7,7,0,0,1-3.58-.88l.48-1.48a6.51,6.51,0,0,0,3.08.79,3.17,3.17,0,0,0,3.41-3.12c0-1.85-1.26-3.18-4.14-3.18a16.09,16.09,0,0,0-2,.15l.93-6.9H647Z"/><path class="cls-1" d="M664.54.82a18.42,18.42,0,0,1,3.52-.31,6.14,6.14,0,0,1,4.09,1.08,3.12,3.12,0,0,1,1.24,2.64,3.55,3.55,0,0,1-2.52,3.27v0A3.85,3.85,0,0,1,674,11.28a4,4,0,0,1-1.26,3c-1,1-2.73,1.39-5.16,1.39a22.64,22.64,0,0,1-3-.17Zm1.93,6.1h1.75c2,0,3.23-1.06,3.23-2.5,0-1.74-1.33-2.43-3.28-2.43a8.83,8.83,0,0,0-1.7.13Zm0,7.15a9.76,9.76,0,0,0,1.61.09c2,0,3.83-.73,3.83-2.9s-1.75-2.88-3.85-2.88h-1.59Z"/><path class="cls-1" d="M684.43,2.79h-5.49l-.55,3.69a8.19,8.19,0,0,1,1.17-.09,6.1,6.1,0,0,1,3.1.78,4.09,4.09,0,0,1,2.06,3.69c0,2.81-2.24,4.91-5.36,4.91a7.07,7.07,0,0,1-3.58-.88l.49-1.48a6.46,6.46,0,0,0,3.07.79,3.17,3.17,0,0,0,3.41-3.12c0-1.85-1.26-3.18-4.14-3.18a16.09,16.09,0,0,0-2,.15l.93-6.9h6.88Z"/></g></g></svg>