<svg xmlns="http://www.w3.org/2000/svg" viewBox="0 0 295.27 172.89"><defs><style>.cls-1{fill:#262262;}.cls-2{fill:#f7941d;}</style></defs><title>lb1_1</title><g id="Layer_2" data-name="Layer 2"><g id="Layer_1-2" data-name="Layer 1"><polygon class="cls-1" points="128.63 115.02 147.64 134.38 166.65 115.02 128.63 115.02"/><path class="cls-1" d="M295.27,0,196.41,29,187,61.07,156.32,73.28l-.27-18,.87-9.69L167.28,34l-26,8.23L122,52.66l21.89,3.08-6.57,16.89-29-11.56L98.86,29,0,0,15.79,21.22,59.27,37H29.35l-1.51.39c3,4,5.89,8.11,8.78,12.2l36.85,5.7L51.24,70.44l41.4,8.93,29.68,30.23H173l29.69-30.23L244,70.44,221.8,55.33l36.85-5.7c2.89-4.09,5.8-8.17,8.78-12.2L265.92,37H236l43.48-15.82Z"/><polygon class="cls-2" points="51.4 75.23 140.63 135.38 88.9 84.23 51.4 75.23"/><polygon class="cls-2" points="154.78 135.38 244.01 75.23 206.51 84.23 154.78 135.38"/><path class="cls-1" d="M61.59,141.47v30.94H53V141.47Z"/><path class="cls-1" d="M89.53,162.48H76.45a6.14,6.14,0,0,1-.3-1.79,6.32,6.32,0,0,1,.41-2.22h4.38A2.69,2.69,0,0,0,78.06,156a3.16,3.16,0,0,0-2.63,1.35,5.64,5.64,0,0,0-1,3.46,5.91,5.91,0,0,0,1,3.56A3,3,0,0,0,78,165.68a3.44,3.44,0,0,0,2.49-1.27l4.91,5.8a12.17,12.17,0,0,1-7.63,2.65,11.87,11.87,0,0,1-8.6-3.37,11.16,11.16,0,0,1-3.49-8.37,11.29,11.29,0,0,1,3.52-8.39,11.94,11.94,0,0,1,8.64-3.42,11.58,11.58,0,0,1,8.41,3.34,11.14,11.14,0,0,1,3.4,8.24Q89.62,161.4,89.53,162.48Z"/><path class="cls-1" d="M106.16,163.93v8.78a11.66,11.66,0,0,1-1.94.18,11.93,11.93,0,0,1-8.65-3.36,11.82,11.82,0,0,1,0-16.75,11.69,11.69,0,0,1,8.5-3.42q5.58,0,8.8,3.2t3.21,8.77v11.08H107.5V161.94a4.33,4.33,0,0,0-.89-2.86,3,3,0,0,0-2.39-1.06,3.24,3.24,0,0,0-2.35,1,3.13,3.13,0,0,0-1,2.31,3.17,3.17,0,0,0,.9,2.32,3.09,3.09,0,0,0,2.28.9A3.9,3.9,0,0,0,106.16,163.93Z"/><path class="cls-1" d="M134.05,149.58v9.07a3.45,3.45,0,0,0-1.64-.5c-1.56,0-2.35,1.18-2.35,3.54v10.72h-8.62V160.06a10.94,10.94,0,0,1,2.72-7.81,9.43,9.43,0,0,1,7.26-2.92A18.79,18.79,0,0,1,134.05,149.58Z"/><path class="cls-1" d="M157.38,172.41h-8.63V159.65c0-1.3-.55-2-1.64-2s-1.61.65-1.61,2v12.76h-8.63v-12.6a10.2,10.2,0,0,1,3-7.45,10.47,10.47,0,0,1,15.2.49c1.55,1.83,2.33,4.37,2.33,7.64Z"/><path class="cls-1" d="M170.81,141.47V160q0,4.51,3.3,4.51a3.3,3.3,0,0,0,2.38-.94,3,3,0,0,0,1-2.28,3.19,3.19,0,0,0-.92-2.32,3,3,0,0,0-2.26-.94,4.1,4.1,0,0,0-2.17.81v-9.34c1-.09,1.78-.13,2.31-.13a11.42,11.42,0,0,1,8.34,3.44,11.29,11.29,0,0,1,3.47,8.3,11.15,11.15,0,0,1-3.53,8.36A12.48,12.48,0,0,1,169,171.75a11.21,11.21,0,0,1-4.05-3,12.57,12.57,0,0,1-2.77-8.45V141.47Z"/><path class="cls-1" d="M198.93,149.81v22.6H190.3v-22.6Zm-4.29-10.09a4.28,4.28,0,0,1,3,1.21,4,4,0,0,1,.07,5.77,4.78,4.78,0,0,1-6.2,0,4,4,0,0,1,.07-5.77A4.28,4.28,0,0,1,194.64,139.72Z"/><path class="cls-1" d="M216.9,149.58v9.07a3.45,3.45,0,0,0-1.64-.5c-1.56,0-2.35,1.18-2.35,3.54v10.72h-8.62V160.06a10.94,10.94,0,0,1,2.72-7.81,9.43,9.43,0,0,1,7.26-2.92A18.79,18.79,0,0,1,216.9,149.58Z"/><path class="cls-1" d="M233.89,141.47h8.62v18.84a12.57,12.57,0,0,1-2.77,8.45,11.26,11.26,0,0,1-4,3A12.5,12.5,0,0,1,222,169.46a11.12,11.12,0,0,1-3.53-8.34,12,12,0,0,1,11.81-11.76c.51,0,1.28,0,2.31.13v9.34a3.49,3.49,0,0,0-2.12-.81,3.14,3.14,0,0,0-2.3,1,3.2,3.2,0,0,0-1,2.32,3,3,0,0,0,1,2.26,3.31,3.31,0,0,0,2.37.94q3.33,0,3.33-4.51Z"/></g></g></svg>