<svg width="949" height="632" viewBox="0 0 949 632" fill="none" xmlns="http://www.w3.org/2000/svg">
<path d="M549.467 110.894C547.496 110.828 545.488 110.794 543.5 110.794V108.794C545.511 108.794 547.54 108.828 549.533 108.895L549.467 110.894Z" fill="#E6E6E6"/>
<path d="M543.5 464.794C540.812 464.794 538.101 464.734 535.441 464.615L535.531 462.617C539.513 462.795 543.589 462.839 547.595 462.748L547.64 464.748C546.265 464.779 544.885 464.794 543.5 464.794ZM559.819 464.057L559.638 462.065C563.634 461.702 567.659 461.196 571.604 460.563L571.921 462.538C567.932 463.177 563.86 463.689 559.819 464.057ZM523.282 463.66C519.251 463.204 515.191 462.603 511.216 461.875L511.577 459.908C515.507 460.627 519.521 461.221 523.507 461.671L523.282 463.66ZM583.891 460.192L583.439 458.243C587.34 457.338 591.259 456.286 595.087 455.114L595.673 457.026C591.8 458.211 587.836 459.277 583.891 460.192ZM499.3 459.263C495.378 458.261 491.438 457.108 487.592 455.836L488.219 453.938C492.023 455.195 495.918 456.334 499.796 457.326L499.3 459.263ZM607.207 453.054L606.49 451.187C610.228 449.753 613.961 448.172 617.585 446.489L618.427 448.303C614.762 450.005 610.987 451.604 607.207 453.054ZM476.131 451.604C472.374 450.066 468.626 448.379 464.994 446.59L465.877 444.795C469.469 446.564 473.174 448.232 476.889 449.752L476.131 451.604ZM629.297 442.791L628.332 441.039C631.838 439.105 635.321 437.027 638.683 434.861L639.767 436.542C636.366 438.733 632.844 440.834 629.297 442.791ZM454.231 440.825C450.722 438.787 447.244 436.604 443.891 434.335L445.012 432.679C448.327 434.921 451.766 437.081 455.236 439.096L454.231 440.825ZM649.785 429.592L648.59 427.989C651.801 425.595 654.969 423.061 658.007 420.456L659.31 421.973C656.236 424.609 653.032 427.172 649.785 429.592ZM434.021 427.155C430.831 424.663 427.683 422.027 424.666 419.32L426.001 417.831C428.985 420.507 432.097 423.114 435.252 425.579L434.021 427.155ZM668.294 413.721L666.892 412.295C669.747 409.487 672.543 406.544 675.201 403.548L676.697 404.876C674.009 407.906 671.182 410.881 668.294 413.721ZM415.868 410.867C413.043 407.961 410.284 404.922 407.667 401.835L409.192 400.542C411.78 403.595 414.508 406.599 417.301 409.472L415.868 410.867ZM684.48 395.475L682.898 394.252C685.343 391.085 687.713 387.789 689.941 384.455L691.604 385.566C689.351 388.938 686.953 392.272 684.479 395.475H684.48ZM400.101 392.269C397.698 389.008 395.379 385.624 393.208 382.21L394.896 381.136C397.043 384.511 399.336 387.858 401.711 391.083L400.101 392.269ZM698.034 375.188L696.3 374.194C698.294 370.715 700.191 367.124 701.94 363.519L703.739 364.392C701.971 368.039 700.052 371.67 698.034 375.188ZM387.02 371.707C385.086 368.151 383.252 364.483 381.569 360.805L383.387 359.973C385.052 363.609 386.865 367.236 388.777 370.751L387.02 371.707ZM708.689 353.227L706.834 352.481C708.331 348.76 709.718 344.94 710.955 341.125L712.857 341.743C711.606 345.601 710.204 349.465 708.689 353.227ZM376.882 349.56C375.453 345.769 374.139 341.88 372.975 338.002L374.891 337.428C376.041 341.262 377.34 345.106 378.753 348.855L376.882 349.56ZM716.217 330.013L714.275 329.529C715.245 325.642 716.091 321.673 716.79 317.733L718.759 318.083C718.052 322.068 717.196 326.082 716.217 330.013ZM369.877 326.204C368.985 322.254 368.218 318.222 367.6 314.22L369.576 313.914C370.188 317.872 370.946 321.858 371.829 325.762L369.877 326.204ZM720.476 306.007L718.487 305.793C718.914 301.817 719.209 297.77 719.365 293.764L721.363 293.842C721.206 297.893 720.907 301.986 720.476 306.007ZM366.149 302.108C365.807 298.08 365.597 293.981 365.527 289.926L367.527 289.892C367.596 293.902 367.803 297.955 368.143 301.938L366.149 302.108ZM719.426 281.7C719.313 277.692 719.061 273.642 718.677 269.662L720.667 269.47C721.056 273.495 721.311 277.591 721.426 281.644L719.426 281.7ZM717.108 257.703C716.449 253.747 715.646 249.77 714.721 245.88L716.666 245.417C717.603 249.351 718.415 253.374 719.081 257.375L717.108 257.703ZM711.523 234.251C710.33 230.433 708.989 226.607 707.537 222.882L709.4 222.156C710.869 225.924 712.226 229.793 713.432 233.654L711.523 234.251ZM702.774 211.813C701.065 208.189 699.21 204.583 697.261 201.093L699.007 200.118C700.979 203.647 702.854 207.295 704.583 210.959L702.774 211.813ZM691.023 190.774C688.833 187.417 686.501 184.096 684.095 180.905L685.69 179.701C688.125 182.927 690.483 186.286 692.699 189.682L691.023 190.774ZM676.506 171.529C673.883 168.504 671.121 165.531 668.297 162.69L669.715 161.28C672.571 164.153 675.364 167.16 678.018 170.219L676.506 171.529ZM659.503 154.431C656.487 151.787 653.346 149.215 650.165 146.788L651.378 145.198C654.595 147.653 657.772 150.253 660.821 152.927L659.503 154.431ZM640.328 139.799C636.979 137.589 633.515 135.47 630.032 133.5L631.017 131.758C634.539 133.751 638.042 135.895 641.43 138.13L640.328 139.799ZM619.326 127.921C615.708 126.19 611.985 124.566 608.261 123.091L608.997 121.232C612.764 122.723 616.529 124.367 620.189 126.116L619.326 127.921ZM596.887 119.037C593.07 117.823 589.163 116.728 585.272 115.781L585.745 113.837C589.681 114.795 593.633 115.903 597.492 117.13L596.887 119.037ZM573.461 113.334C569.518 112.658 565.497 112.11 561.51 111.705L561.713 109.714C565.745 110.125 569.811 110.679 573.799 111.362L573.461 113.334Z" fill="#E6E6E6"/>
<path d="M367.739 277.536L365.742 277.433C365.847 275.416 365.986 273.391 366.156 271.414L368.148 271.584C367.98 273.54 367.843 275.542 367.739 277.536Z" fill="#E6E6E6"/>
<path d="M696 629.589H191V404.589L443.5 518.089L696 404.589V629.589Z" fill="#09162A"/>
<path d="M191 404.589H696L444 534.589L191 404.589Z" fill="#FF5E15"/>
<path d="M444 555.589C455.598 555.589 465 546.187 465 534.589C465 522.991 455.598 513.589 444 513.589C432.402 513.589 423 522.991 423 534.589C423 546.187 432.402 555.589 444 555.589Z" fill="#E6E6E6"/>
<path d="M66.1465 629.11C65.917 628.735 60.5059 619.7 58.6299 600.938C56.9092 583.725 58.0156 554.712 73.0625 514.24C101.568 437.569 66.4932 375.707 66.1348 375.091L67.8652 374.087C67.9561 374.243 77.0068 390.016 82.3535 415.131C89.4181 448.428 86.8457 483.05 74.9375 514.937C46.4805 591.477 67.6367 627.711 67.8535 628.068L66.1465 629.11Z" fill="white"/>
<path d="M55 370.589C62.1797 370.589 68 364.769 68 357.589C68 350.409 62.1797 344.589 55 344.589C47.8203 344.589 42 350.409 42 357.589C42 364.769 47.8203 370.589 55 370.589Z" fill="#FF5E15"/>
<path d="M96 418.589C103.18 418.589 109 412.769 109 405.589C109 398.409 103.18 392.589 96 392.589C88.8203 392.589 83 398.409 83 405.589C83 412.769 88.8203 418.589 96 418.589Z" fill="white"/>
<path d="M68 450.589C75.1797 450.589 81 444.769 81 437.589C81 430.409 75.1797 424.589 68 424.589C60.8203 424.589 55 430.409 55 437.589C55 444.769 60.8203 450.589 68 450.589Z" fill="#FF5E15"/>
<path d="M102 477.589C109.18 477.589 115 471.769 115 464.589C115 457.409 109.18 451.589 102 451.589C94.8203 451.589 89 457.409 89 464.589C89 471.769 94.8203 477.589 102 477.589Z" fill="white"/>
<path d="M58 519.589C65.1797 519.589 71 513.769 71 506.589C71 499.409 65.1797 493.589 58 493.589C50.8203 493.589 45 499.409 45 506.589C45 513.769 50.8203 519.589 58 519.589Z" fill="#FF5E15"/>
<path d="M74 629.589C74 629.589 61 597.589 100 573.589L74 629.589Z" fill="white"/>
<path d="M58.012 629.008C58.012 629.008 52.0955 594.979 6.30347 595.271L58.012 629.008Z" fill="white"/>
<path d="M278.5 138.089C278.458 110.658 287.627 84.0077 304.536 62.4087C286.377 59.7326 267.849 61.1547 250.311 66.5706C232.774 71.9865 216.67 81.259 203.182 93.7082C189.694 106.157 179.163 121.467 172.362 138.516C165.56 155.565 162.661 173.919 163.876 192.234C165.091 210.549 170.39 228.359 179.384 244.36C188.378 260.361 200.839 274.145 215.854 284.704C230.868 295.262 248.055 302.326 266.155 305.377C284.255 308.429 302.808 307.391 320.454 302.339C343.745 312.457 369.222 316.499 394.5 314.089L355.202 286.127C365.941 278.875 375.474 269.979 383.451 259.767C354.277 255.434 327.63 240.764 308.366 218.43C289.101 196.095 278.503 167.583 278.5 138.089Z" fill="#09162A"/>
<path d="M557.5 125.089C557.5 99.4752 549.503 74.5007 534.627 53.6502C519.75 32.7997 498.736 17.1135 474.516 8.78039C450.295 0.447295 424.078 -0.116911 399.522 7.16648C374.966 14.4499 353.296 29.2175 337.536 49.4087C358.812 52.562 378.889 61.2394 395.765 74.5752C412.64 87.911 425.723 105.439 433.708 125.41C441.694 145.381 444.303 167.097 441.275 188.392C438.247 209.686 429.688 229.814 416.451 246.767C433.833 249.328 451.56 248.159 468.454 243.339C491.745 253.457 517.221 257.499 542.5 255.089L503.202 227.127C519.928 215.877 533.629 200.685 543.098 182.891C552.567 165.096 557.513 145.246 557.5 125.089Z" fill="#FF5E15"/>
<path d="M320.536 55.4087C307.304 72.3634 298.749 92.491 295.723 113.784C292.698 135.077 295.308 156.791 303.293 176.76C311.278 196.73 324.359 214.257 341.231 227.593C358.104 240.93 378.178 249.61 399.451 252.767C412.688 235.814 421.247 215.686 424.275 194.392C427.303 173.097 424.694 151.381 416.709 131.41C408.723 111.439 395.64 93.911 378.765 80.5752C361.889 67.2394 341.812 58.562 320.536 55.4087Z" fill="#E6E6E6"/>
<path d="M949 629.589H0V631.589H949V629.589Z" fill="#3F3D56"/>
<path d="M806.145 160.547L800.212 200.029L732.406 245.891C732.406 245.891 696.756 262.975 699 273.589C701.001 283.05 728.51 281.93 737.167 267.3L818.234 230.446L845.346 176.771L806.145 160.547Z" fill="#FFB8B8"/>
<path d="M806.5 558.589L809.5 600.589L838.5 598.589L833.5 558.589H806.5Z" fill="#FFB8B8"/>
<path d="M814.5 587.589C814.5 587.589 810.5 572.589 806.5 573.589L800.5 584.589C800.5 584.589 773.5 609.589 765.5 610.589C765.5 610.589 739.5 618.589 765.5 630.589H795.5C795.5 630.589 815.5 629.589 819.5 630.589C823.5 631.589 846.5 631.589 847.5 625.589C848.5 619.589 844.5 607.589 844.5 607.589C844.5 607.589 840.812 578.086 836.656 583.837C834.484 586.923 832.093 589.847 829.5 592.589L814.5 587.589Z" fill="#2F2E41"/>
<path d="M881.5 559.089L884.5 601.089L913.5 599.089L908.5 559.089H881.5Z" fill="#FFB8B8"/>
<path d="M889.5 588.089C889.5 588.089 885.5 573.089 881.5 574.089L875.5 585.089C875.5 585.089 848.5 610.089 840.5 611.089C840.5 611.089 814.5 619.089 840.5 631.089H870.5C870.5 631.089 890.5 629.089 894.5 630.089C898.5 631.089 921.5 631.089 922.5 625.089C923.5 619.089 919.5 608.089 919.5 608.089C919.5 608.089 915.812 578.586 911.656 584.337C909.484 587.423 907.093 590.347 904.5 593.089L889.5 588.089Z" fill="#2F2E41"/>
<path d="M767.5 301.089L762.5 308.089V322.089L794.5 441.089L800.5 467.089C800.5 467.089 800.5 567.089 806.5 567.089C812.5 567.089 839.5 570.089 839.5 564.089C839.5 558.089 837.5 422.089 837.5 422.089L864.5 473.089C864.5 473.089 876.5 563.089 880.5 564.089C884.5 565.089 912.5 564.089 914.5 558.089L908.5 501.089C908.5 501.089 909.5 437.089 892.5 423.089C892.5 423.089 889.5 406.089 886.5 399.089C883.5 392.089 878.5 388.089 881.5 383.089C884.5 378.089 877.5 323.089 877.5 323.089C877.5 323.089 879.5 306.089 875.5 301.089C871.5 296.089 767.5 301.089 767.5 301.089Z" fill="#2F2E41"/>
<path d="M831.5 74.0888C848.621 74.0888 862.5 60.2096 862.5 43.0888C862.5 25.968 848.621 12.0888 831.5 12.0888C814.379 12.0888 800.5 25.968 800.5 43.0888C800.5 60.2096 814.379 74.0888 831.5 74.0888Z" fill="#FFB8B8"/>
<path d="M851 61.5888L849 81.5888L857 88.5888L806 112.589C818.563 91.1252 822.284 71.5813 816 57.5888L851 61.5888Z" fill="#FFB8B8"/>
<path d="M816 91.5888C816 91.5888 808 107.589 818 103.589L849 81.5888C849 81.5888 883 94.5888 895 109.589L885 215.589L877 290.589C877 290.589 882 299.589 881 300.589C880 301.589 879 299.589 880 302.589C881 305.589 884 302.589 881 305.589C878 308.589 875 305.589 878 308.589C881 311.589 878 312.589 878 312.589C878 312.589 874 288.589 839 306.589C804 324.589 789 329.589 763 307.589L793 193.589L795.422 150.593C796.231 136.231 798.787 122.021 803.033 108.278C805.326 100.854 809.321 93.5593 816 89.5888V91.5888Z" fill="#FF5E15"/>
<path d="M869.5 179.089L884.5 216.089L849.5 290.089C849.5 290.089 841.5 299.089 846.5 310.089C849.083 315.967 852.091 321.648 855.5 327.089C855.5 327.089 864.5 323.089 864.5 306.089L915.5 233.089L911.5 173.089L869.5 179.089Z" fill="#FFB8B8"/>
<path d="M867.5 113.089C867.5 113.089 853.5 127.089 859.5 149.089C865.5 171.089 870.5 188.089 870.5 188.089C870.5 188.089 894.5 170.089 914.5 181.089C914.5 181.089 911.5 116.089 894.5 110.089C877.5 104.089 867.5 113.089 867.5 113.089Z" fill="#FF5E15"/>
<path d="M856.984 16.4953C856.984 16.4953 847.513 -4.02622 829.359 0.709516C811.205 5.44525 800.945 12.5488 800.155 19.6524C799.366 26.756 800.55 37.4114 800.55 37.4114C800.55 37.4114 802.523 22.8096 815.152 25.9668C827.78 29.1239 847.513 26.7561 847.513 26.7561L850.67 55.1704C850.67 55.1704 856.054 49.4317 860 52.5888C863.946 55.746 869.613 22.8096 856.984 16.4953Z" fill="#2F2E41"/>
<path d="M700.158 239.511L718.615 235.236C719.506 235.03 720.44 235.133 721.265 235.528C722.089 235.923 722.754 236.587 723.151 237.41L742.058 276.616C742.264 277.044 742.374 277.512 742.381 277.986C742.387 278.461 742.29 278.931 742.095 279.365C741.9 279.798 741.613 280.183 741.254 280.493C740.895 280.804 740.472 281.032 740.015 281.161L721.258 286.491C720.254 286.776 719.18 286.686 718.237 286.238C717.294 285.79 716.546 285.014 716.133 284.055L704.069 256.034L703.702 256.237L701.406 250.928L701.787 250.733L698.42 242.912C698.276 242.577 698.207 242.214 698.219 241.849C698.231 241.485 698.324 241.127 698.49 240.803C698.656 240.478 698.891 240.194 699.18 239.97C699.468 239.747 699.802 239.59 700.158 239.511Z" fill="#3F3D56"/>
<path d="M716.392 236.691L718.546 236.192C719.165 236.048 719.814 236.121 720.386 236.398C720.958 236.674 721.418 237.138 721.69 237.712L740.143 276.667C740.25 276.891 740.306 277.136 740.309 277.384C740.312 277.632 740.262 277.878 740.161 278.105C740.061 278.332 739.912 278.534 739.726 278.698C739.54 278.863 739.321 278.985 739.083 279.056L720.458 284.676C719.932 284.835 719.367 284.794 718.869 284.562C718.372 284.331 717.977 283.924 717.76 283.419L700.3 242.782C700.187 242.519 700.133 242.234 700.142 241.948C700.151 241.662 700.223 241.381 700.352 241.126C700.482 240.87 700.666 240.646 700.891 240.47C701.116 240.293 701.377 240.168 701.656 240.104L703.7 239.63C703.898 239.584 704.105 239.605 704.29 239.689C704.475 239.773 704.627 239.916 704.723 240.095C704.807 240.253 704.942 240.379 705.105 240.453C705.268 240.527 705.451 240.545 705.626 240.505L715.329 238.257C715.671 238.178 715.97 237.973 716.167 237.682C716.364 237.392 716.445 237.038 716.392 236.691Z" fill="#2F2E41"/>
</svg>
