<svg xmlns="http://www.w3.org/2000/svg" viewBox="0 0 120.55 111.59"><title>ico_4</title><g id="Layer_2" data-name="Layer 2"><g id="Layer_1-2" data-name="Layer 1"><path d="M33.7,71.61c.67,8.38.85,8.66,7.92,8.61,19.4-.13,38.8-.36,58.2-.54,1.92,0,3.84,0,5.75.17,1.68.13,3.12,1.08,2.72,2.8a5.35,5.35,0,0,1-2.62,3c-1,.55-2.5.31-3.77.31-21.12,0-42.24.06-63.36,0-7.71,0-9-1.35-10.58-9-4.23-20.44-8.65-40.84-12.73-61.31-.67-3.39-2-5.33-5.16-6.49A46.6,46.6,0,0,1,2,5.37C1,4.75-.16,3,0,2,.39-.18,2.54-.3,4.14.34c4.54,1.82,9.21,3.51,13.32,6.07,1.8,1.11,2.77,4.11,3.4,6.44,1.59,5.94,1.42,6.06,7.63,6.07q39,0,78.07,0c2.56,0,5.14-.1,7.68.15,4.77.46,6.89,3,6.18,7.74-.76,5.05-1.92,10.05-3,15.06-1.33,6.47-2.74,12.92-4,19.39-1.89,9.31-3.07,10.34-12.77,10.35q-29.76,0-59.51,0Zm-2.31-7.32c8.44,1.28,70.23.94,75.22-.4,2.59-12.56,5.23-25.34,7.83-37.93-1-.53-1.33-.9-1.7-.9q-40.9-.15-81.81-.22c-1.91,0-3.81.2-5.72.33-.18,0-.34.23-.5.37s-.3.29-1,1Z"/><path d="M87.85,90.53a10.82,10.82,0,0,1,10.52,10.6A10.59,10.59,0,0,1,87.8,111.59a10.53,10.53,0,0,1,0-21.06Zm4.24,10.85A4.37,4.37,0,0,0,88,96.62a4.46,4.46,0,0,0-.62,8.89A4.36,4.36,0,0,0,92.09,101.38Z"/><path d="M50.32,111.29c-6.46-.06-10-3.75-10-10.28S43.93,91,50.5,91c6.08,0,10.47,4.28,10.4,10.23S56.42,111.36,50.32,111.29Zm4.34-10.47a4.19,4.19,0,0,0-4.44-4.22,4.46,4.46,0,1,0,.5,8.9A4.16,4.16,0,0,0,54.66,100.82Z"/><path d="M68.62,40.18c-5.76,0-11.51,0-17.27,0a14.32,14.32,0,0,1-4.41-.39,3.06,3.06,0,0,1-1.64-2.35,3.07,3.07,0,0,1,1.6-2.34,13,13,0,0,1,4.38-.55c11.94,0,23.88-.07,35.82,0,2.14,0,5-.88,5.78,2.42.48,2.2-1.21,3.14-5.71,3.18C81,40.23,74.8,40.18,68.62,40.18Z"/><path d="M90,50.66c1.16,3.46-.27,4.75-2.8,5-2.76.22-5.54.16-8.31.16-8.11,0-16.23.09-24.33-.07a15.09,15.09,0,0,1-6.07-1.39c-1.76-.84-1.39-3.27.5-3.94a12,12,0,0,1,3.77-.54c10.24,0,20.48-.06,30.73,0A54.76,54.76,0,0,1,90,50.66Z"/></g></g></svg>