<svg xmlns="http://www.w3.org/2000/svg" viewBox="0 0 115.22 94.72"><title>ico_2</title><g id="Layer_2" data-name="Layer 2"><g id="Layer_1-2" data-name="Layer 1"><path d="M62.15,87.81c-1.44,5.13-4.67,7-9.76,6.86-10.23-.26-20.48-.34-30.7,0-5.38.2-9.84-3.55-9.24-9.47.35-3.53.06-7.12.06-11L8.8,74.08C3.23,73.79.08,70.74.06,65.18Q0,37.32.06,9.46C.09,3.28,3.39,0,9.57,0q48-.06,96.1,0c6.17,0,9.5,3.33,9.52,9.33q.06,27.87,0,55.73c0,6.37-2.62,8.91-9,9-8.52.06-17,0-25.88,0l-.57,3c1.32.14,2.4.33,3.47.34,6.07,0,12.13-.05,18.2,0,2.73,0,3.4.74,3.54,3.31.12,2.06,0,4.12,0,6.37-5,1.3-9.73.5-14.38.65s-9.1,0-13.65,0Zm-.39-18.17h6.39c12.33,0,24.65,0,37,0,4.69,0,5.44-.78,5.46-5.19q.06-27.3,0-54.61c0-4.7-.64-5.24-5.17-5.24H13.25c-1.13,0-2.27,0-3.41,0C6.08,4.77,4.71,6,4.69,9.76q-.08,27.59,0,55.18c0,3.66.75,4.35,4.22,4.56a32,32,0,0,0,3.6-.24V27.47c0-1.13-.07-2.28,0-3.41.35-4.13,2.35-6.36,6.6-7.18a34.39,34.39,0,0,1,6.14-.71c8.34-.08,16.69,0,25,0a21.66,21.66,0,0,1,3.95.21c5.34,1,7.46,3.49,7.48,8.89,0,12.71,0,25.41,0,38.12Zm-44.65-.3H56.76c.79-7.56.58-42.94-.31-47.63a23.26,23.26,0,0,0-4.68-1q-14.49-.14-29,0c-4.57,0-5.65,1.16-5.67,5.75,0,11,0,22,0,33Zm0,4.89c0,3.75,0,7.13,0,10.5.07,4.78.47,5.23,5.17,5.26,9.85,0,19.69,0,29.54,0,.76,0,1.52,0,2.27,0,1.72-.13,3-1,3-2.79a103.81,103.81,0,0,0-.12-13Zm45,8.87c.62.4.94.77,1.25.78C75.31,84,87.21,84,99.12,84c.69,0,1.37-.82,2.06-1.25l-.19-.83H76.55c-.58-2.74-1.08-5.06-1.61-7.58h-13C61.78,77.49,61.38,80.42,62.15,83.1Z"/><path d="M42.34,82.53a5.16,5.16,0,0,1-5.5,5A5.05,5.05,0,0,1,32,82.46a5.5,5.5,0,0,1,5.54-5.64C40.44,77,42.4,79.35,42.34,82.53Z"/></g></g></svg>