<svg xmlns="http://www.w3.org/2000/svg" viewBox="0 0 144.69 85.26"><title>ico_1</title><g id="Layer_2" data-name="Layer 2"><g id="Layer_1-2" data-name="Layer 1"><path d="M25.59,84.82c0-9.11.31-17.64-.13-26.13a34.25,34.25,0,0,0-2.9-12.54C16.29,32.83,9.48,19.76,2.91,6.58,2,4.67,1.18,2.68,0,0H144.69c-1.49,3.2-2.81,6.13-4.22,9-2.91,5.92-5.4,12.11-8.9,17.66-10.07,15.95-15,33-12.49,51.88.68,5.19-1.33,6.76-6.58,6.71C85.68,85,58.86,85.15,32,85.13,30.3,85.13,28.56,85,25.59,84.82ZM10.05,6.28c6.46,13,12.52,24.68,18.06,36.6C30,47,32.52,48,36.77,48c20.66-.2,41.37-.9,62,.22,11.61.63,18.09-2.59,22.08-13.7,3.43-9.57,8.91-18.4,13.81-28.21ZM32.61,78h79.57V54.51H32.61Z"/></g></g></svg>