<svg xmlns="http://www.w3.org/2000/svg" viewBox="0 0 121.11 101.2"><title>ico_3</title><g id="Layer_2" data-name="Layer 2"><g id="Layer_1-2" data-name="Layer 1"><path d="M61.15,101.07c-8.33,0-16.68-.28-25,.09-5.94.26-11.72-.85-17.58-1.23a15.41,15.41,0,0,1-8.87-3.76c-2.69-2.34-5.55-4.74-7-8C1.44,85.31,0,82.44,0,79.23c0-19.16,0-38.32,0-57.48a18,18,0,0,1,4.83-12c3-3.35,6-6.72,10.72-7.85,1-.25,6.5-1.29,7.48-1.34C24.39.53,25.68.09,27,.09c23.33,0,46.66-.23,70,.09,7.93.11,15.11,3.41,19.62,10.19,2.61,3.92,4.59,8.39,4.52,13.62-.23,17.82-.11,35.65-.07,53.48,0,6.22-2.73,11.2-6.64,15.75A20.17,20.17,0,0,1,104,99.58c-.28.08-.52.44-.8.47-3.52.36-7,.93-10.58,1C82.14,101.15,71.64,101.07,61.15,101.07Zm-.26-95q-16.24,0-32.49,0a55,55,0,0,0-9.11.85C12.2,8.13,6,16.2,6,22.82c0,17.67.12,35.33-.1,53A19.86,19.86,0,0,0,9,87.06c1.47,2.34,3.24,4.5,5.94,5.42,3.55,1.2,7.07,2.6,10.93,2.6,23,0,46-.06,69,0a26.52,26.52,0,0,0,7.9-1.55,15,15,0,0,0,3.92-1.43c3.29-2,5.11-5,6.89-8.18a10.44,10.44,0,0,0,1.48-5.4c-.1-17.66-.16-35.33,0-53a21.14,21.14,0,0,0-3-11.29,16,16,0,0,0-9.17-7,26.51,26.51,0,0,0-9-1.27C82.89,6.22,71.89,6.07,60.89,6.07Z"/><path d="M86.83,49.77c-3-5.61-2.54-11.07.41-16.34,1.17-2.09,3.38-2.9,5.82-2.82a6.8,6.8,0,0,1,6.8,4.9,20.59,20.59,0,0,1,1.06,7c-.09,2.43-1,4.82-1.53,7.43,4.67,4.36,9.25,9.23,8.56,17H95.41A9.79,9.79,0,0,1,94,61.12a4.18,4.18,0,0,0-1.49-3c-.5,2.85-1,5.69-1.54,8.73H78.18C76.92,58.89,82.13,54.34,86.83,49.77Z"/><path d="M26.05,67.07c-4,0-7.66.05-11.29,0-2.09,0-1.88-.29-1.81-2.7.14-5.06,2.85-8.62,6.2-11.92,1.41-1.39,3.19-2.73.91-4.82,0-3.65-.53-7.4.14-10.92.41-2.12,2.67-3.89,4-5.62.72,0,1.06,0,1.39,0,3.42-.26,6.22.14,7.47,1.58a13.8,13.8,0,0,1,3,7.72,15.69,15.69,0,0,1-2.15,10C40.39,54,42,60.15,43.25,66.84H30.46c-1.59-2.7-1.08-5.83-2.31-8.62a4.13,4.13,0,0,1,.72-4.61c.59-.59.18-1-1.85-1.55a14.06,14.06,0,0,0,0,2.44C27.8,58.62,25.75,62.49,26.05,67.07Z"/><path d="M52.13,66.94H44.84C46,60.31,47.52,54.25,54,50.47c-1.85-4.47-.6-9.38-.92-14.2,0-.57,2.6-3.85,3.23-4.2,2.11-1.21,2.11-1.21,7.33-1,.87.9,1.87,1.79,2.7,2.81.68.84,1.69,1.88,1.63,2.76-.25,3.89,1,7.87-.64,11.67a2.4,2.4,0,0,0,.52,3.06c1,.88,1.88,1.88,2.83,2.81a13.3,13.3,0,0,1,4.43,8.65,8.38,8.38,0,0,0,1,2.46c-1.35,2.74-3.72,1.43-5.7,1.85-.26-1.11-.35-2.74-.7-2.8-3.15-.52-2.6-2.84-2.65-4.91,0-.32-.05-.64-.08-1-1-1.47-1.94,1.16-3.2,0a9.5,9.5,0,0,1-2.1-2.06A1.53,1.53,0,0,0,59,57c-.64,1.52-1.3,3.06-3.46,1.23-.9-.75-2.46.71-1.93,1.86,1,2.17.28,3.22-1.77,4C49.61,65,51.55,65.79,52.13,66.94Z"/><path d="M56.13,66.89c-.42-2.47.65-4.16,2.31-5.74H62.6c1.66,1.58,2.73,3.27,2.3,5.74Z"/></g></g></svg>