<svg xmlns="http://www.w3.org/2000/svg" xmlns:xlink="http://www.w3.org/1999/xlink" viewBox="0 0 703 181.63">
	<defs>
		<style>.cls-1{fill:url(#linear-gradient);}
		.cls-2{fill:url(#linear-gradient-2);}
		.cls-3{fill:url(#linear-gradient-3);}
		.cls-4{fill:url(#linear-gradient-4);}
		.cls-5{fill:url(#linear-gradient-5);}
		.cls-6{fill:url(#linear-gradient-6);}
		.cls-7{fill:url(#linear-gradient-7);}
		.cls-8{fill:url(#linear-gradient-8);}
		.cls-9{fill:url(#linear-gradient-9);}
		.cls-10{fill:url(#linear-gradient-10);}
		.cls-11{fill:url(#linear-gradient-11);}
		.cls-12{fill:url(#linear-gradient-12);}
		.cls-13{fill:url(#linear-gradient-13);}
		.cls-14{fill:url(#linear-gradient-14);}
		.cls-15{fill:url(#linear-gradient-15);}
		.cls-16{fill:url(#linear-gradient-16);}
		.cls-17{fill:url(#linear-gradient-17);}
		.cls-18{fill:url(#linear-gradient-18);}
		.cls-19{fill:url(#linear-gradient-19);}
		.cls-20{fill:url(#linear-gradient-20);}
		.cls-21{fill:url(#linear-gradient-21);}
		.cls-22{fill:url(#linear-gradient-22);}
		.cls-23{fill:url(#linear-gradient-23);}
		.cls-24{fill:url(#linear-gradient-24);}
		.cls-25{fill:url(#linear-gradient-25);}
		.cls-26{fill:url(#linear-gradient-26);}
		.cls-27{fill:url(#linear-gradient-27);}
		.cls-28{fill:url(#linear-gradient-28);}
		.cls-29{fill:url(#linear-gradient-29);}
		.cls-30{fill:url(#linear-gradient-30);}
		.cls-31{fill:url(#linear-gradient-31);}
		</style>
		<linearGradient id="linear-gradient" x1="0.5" y1="93.63" x2="39.5" y2="93.63" gradientUnits="userSpaceOnUse"><stop offset="0" stop-color="#fff"/><stop offset="1" stop-color="#f2f2f2"/></linearGradient>
		<linearGradient id="linear-gradient-2" x1="39.5" y1="93.63" x2="78.5" y2="93.63" xlink:href="#linear-gradient"/>
		<linearGradient id="linear-gradient-3" x1="78.5" y1="93.63" x2="117.5" y2="93.63" xlink:href="#linear-gradient"/>
		<linearGradient id="linear-gradient-4" x1="117.5" y1="93.63" x2="156.5" y2="93.63" xlink:href="#linear-gradient"/>
		<linearGradient id="linear-gradient-5" x1="25.5" y1="46.5" x2="54.5" y2="46.5" gradientUnits="userSpaceOnUse"><stop offset="0" stop-color="gray"/><stop offset="1"/></linearGradient>
		<linearGradient id="linear-gradient-6" x1="64.5" x2="93.5" xlink:href="#linear-gradient-5"/>
		<linearGradient id="linear-gradient-7" x1="103.5" x2="132.5" xlink:href="#linear-gradient-5"/>
		<linearGradient id="linear-gradient-8" x1="136.6" y1="96.13" x2="198.33" y2="92.21" gradientUnits="userSpaceOnUse"><stop offset="0" stop-color="#f2f2f2"/><stop offset="0.24" stop-color="#e9e9e9"/><stop offset="0.64" stop-color="#cfcfcf"/><stop offset="0.99" stop-color="#b3b3b3"/></linearGradient>
		<linearGradient id="linear-gradient-9" x1="195.5" y1="93.63" x2="234.5" y2="93.63" xlink:href="#linear-gradient"/>
		<linearGradient id="linear-gradient-10" x1="234.5" y1="93.63" x2="273.5" y2="93.63" xlink:href="#linear-gradient"/>
		<linearGradient id="linear-gradient-11" x1="273.5" y1="93.63" x2="312.5" y2="93.63" xlink:href="#linear-gradient"/>
		<linearGradient id="linear-gradient-12" x1="312.5" y1="93.63" x2="351.5" y2="93.63" xlink:href="#linear-gradient"/>
		<linearGradient id="linear-gradient-13" x1="351.5" y1="93.63" x2="390.5" y2="93.63" xlink:href="#linear-gradient"/>
		<linearGradient id="linear-gradient-14" x1="390.5" y1="93.63" x2="429.5" y2="93.63" xlink:href="#linear-gradient"/>
		<linearGradient id="linear-gradient-15" x1="180.5" x2="209.5" xlink:href="#linear-gradient-5"/>
		<linearGradient id="linear-gradient-16" x1="219.5" x2="248.5" xlink:href="#linear-gradient-5"/>
		<linearGradient id="linear-gradient-17" x1="298.5" x2="327.5" xlink:href="#linear-gradient-5"/>
		<linearGradient id="linear-gradient-18" x1="337.5" x2="366.5" xlink:href="#linear-gradient-5"/>
		<linearGradient id="linear-gradient-19" x1="376.5" x2="405.5" xlink:href="#linear-gradient-5"/>
		<linearGradient id="linear-gradient-20" x1="427.91" y1="94.94" x2="474.94" y2="92" xlink:href="#linear-gradient-8"/>
		<linearGradient id="linear-gradient-21" x1="468.5" y1="93.63" x2="507.5" y2="93.63" xlink:href="#linear-gradient"/>
		<linearGradient id="linear-gradient-22" x1="507.5" y1="93.63" x2="546.5" y2="93.63" xlink:href="#linear-gradient"/>
		<linearGradient id="linear-gradient-23" x1="546.5" y1="93.63" x2="585.5" y2="93.63" xlink:href="#linear-gradient"/>
		<linearGradient id="linear-gradient-24" x1="585.5" y1="93.63" x2="624.5" y2="93.63" xlink:href="#linear-gradient"/>
		<linearGradient id="linear-gradient-25" x1="624.5" y1="93.63" x2="663.5" y2="93.63" xlink:href="#linear-gradient"/>
		<linearGradient id="linear-gradient-26" x1="663.5" y1="93.63" x2="702.5" y2="93.63" xlink:href="#linear-gradient"/>
		<linearGradient id="linear-gradient-27" x1="453.5" x2="482.5" xlink:href="#linear-gradient-5"/>
		<linearGradient id="linear-gradient-28" x1="492.5" x2="521.5" xlink:href="#linear-gradient-5"/>
		<linearGradient id="linear-gradient-29" x1="571.5" x2="600.5" xlink:href="#linear-gradient-5"/>
		<linearGradient id="linear-gradient-30" x1="610.5" x2="639.5" xlink:href="#linear-gradient-5"/>
		<linearGradient id="linear-gradient-31" x1="649.5" x2="678.5" xlink:href="#linear-gradient-5"/></defs>
		<title>piano</title>
		<g id="Layer_2" data-name="Layer 2"><g id="Layer_1-2" data-name="Layer 1">
		<rect class="cls-1" x="0.5" y="6.13" width="39" height="175" rx="11.5" ry="11.5"/>
		<path d="M28,6.63a11,11,0,0,1,11,11v152a11,11,0,0,1-11,11H12a11,11,0,0,1-11-11v-152a11,11,0,0,1,11-11H28m0-1H12a12,12,0,0,0-12,12v152a12,12,0,0,0,12,12H28a12,12,0,0,0,12-12v-152a12,12,0,0,0-12-12Z"/>
		<rect class="cls-2" x="39.5" y="6.13" width="39" height="175" rx="11.5" ry="11.5"/>
		<path d="M67,6.63a11,11,0,0,1,11,11v152a11,11,0,0,1-11,11H51a11,11,0,0,1-11-11v-152a11,11,0,0,1,11-11H67m0-1H51a12,12,0,0,0-12,12v152a12,12,0,0,0,12,12H67a12,12,0,0,0,12-12v-152a12,12,0,0,0-12-12Z"/>
		<rect class="cls-3" x="78.5" y="6.13" width="39" height="175" rx="11.5" ry="11.5"/>
		<path d="M106,6.63a11,11,0,0,1,11,11v152a11,11,0,0,1-11,11H90a11,11,0,0,1-11-11v-152a11,11,0,0,1,11-11h16m0-1H90a12,12,0,0,0-12,12v152a12,12,0,0,0,12,12h16a12,12,0,0,0,12-12v-152a12,12,0,0,0-12-12Z"/>
		<rect class="cls-4" x="117.5" y="6.13" width="39" height="175" rx="11.5" ry="11.5"/>
		<path d="M145,6.63a11,11,0,0,1,11,11v152a11,11,0,0,1-11,11H129a11,11,0,0,1-11-11v-152a11,11,0,0,1,11-11h16m0-1H129a12,12,0,0,0-12,12v152a12,12,0,0,0,12,12h16a12,12,0,0,0,12-12v-152a12,12,0,0,0-12-12Z"/>
		<rect class="cls-5" x="25.5" y="0.5" width="29" height="92" rx="11.5" ry="11.5"/>
		<path d="M43,1A11,11,0,0,1,54,12V81A11,11,0,0,1,43,92H37A11,11,0,0,1,26,81V12A11,11,0,0,1,37,1h6m0-1H37A12,12,0,0,0,25,12V81A12,12,0,0,0,37,93h6A12,12,0,0,0,55,81V12A12,12,0,0,0,43,0Z"/>
		<rect class="cls-6" x="64.5" y="0.5" width="29" height="92" rx="11.5" ry="11.5"/><path d="M82,1A11,11,0,0,1,93,12V81A11,11,0,0,1,82,92H76A11,11,0,0,1,65,81V12A11,11,0,0,1,76,1h6m0-1H76A12,12,0,0,0,64,12V81A12,12,0,0,0,76,93h6A12,12,0,0,0,94,81V12A12,12,0,0,0,82,0Z"/>
		<rect class="cls-7" x="103.5" y="0.5" width="29" height="92" rx="11.5" ry="11.5"/><path d="M121,1a11,11,0,0,1,11,11V81a11,11,0,0,1-11,11h-6a11,11,0,0,1-11-11V12A11,11,0,0,1,115,1h6m0-1h-6a12,12,0,0,0-12,12V81a12,12,0,0,0,12,12h6a12,12,0,0,0,12-12V12A12,12,0,0,0,121,0Z"/>
		<rect class="cls-8" x="156.5" y="6.13" width="39" height="175" rx="11.5" ry="11.5"/><path d="M184,6.63a11,11,0,0,1,11,11v152a11,11,0,0,1-11,11H168a11,11,0,0,1-11-11v-152a11,11,0,0,1,11-11h16m0-1H168a12,12,0,0,0-12,12v152a12,12,0,0,0,12,12h16a12,12,0,0,0,12-12v-152a12,12,0,0,0-12-12Z"/>
		<rect class="cls-9" x="195.5" y="6.13" width="39" height="175" rx="11.5" ry="11.5"/><path d="M223,6.63a11,11,0,0,1,11,11v152a11,11,0,0,1-11,11H207a11,11,0,0,1-11-11v-152a11,11,0,0,1,11-11h16m0-1H207a12,12,0,0,0-12,12v152a12,12,0,0,0,12,12h16a12,12,0,0,0,12-12v-152a12,12,0,0,0-12-12Z"/>
		<rect class="cls-10" x="234.5" y="6.13" width="39" height="175" rx="11.5" ry="11.5"/><path d="M262,6.63a11,11,0,0,1,11,11v152a11,11,0,0,1-11,11H246a11,11,0,0,1-11-11v-152a11,11,0,0,1,11-11h16m0-1H246a12,12,0,0,0-12,12v152a12,12,0,0,0,12,12h16a12,12,0,0,0,12-12v-152a12,12,0,0,0-12-12Z"/>
		<rect class="cls-11" x="273.5" y="6.13" width="39" height="175" rx="11.5" ry="11.5"/><path d="M301,6.63a11,11,0,0,1,11,11v152a11,11,0,0,1-11,11H285a11,11,0,0,1-11-11v-152a11,11,0,0,1,11-11h16m0-1H285a12,12,0,0,0-12,12v152a12,12,0,0,0,12,12h16a12,12,0,0,0,12-12v-152a12,12,0,0,0-12-12Z"/>
		<rect class="cls-12" x="312.5" y="6.13" width="39" height="175" rx="11.5" ry="11.5"/><path d="M340,6.63a11,11,0,0,1,11,11v152a11,11,0,0,1-11,11H324a11,11,0,0,1-11-11v-152a11,11,0,0,1,11-11h16m0-1H324a12,12,0,0,0-12,12v152a12,12,0,0,0,12,12h16a12,12,0,0,0,12-12v-152a12,12,0,0,0-12-12Z"/>
		<rect class="cls-13" x="351.5" y="6.13" width="39" height="175" rx="11.5" ry="11.5"/><path d="M379,6.63a11,11,0,0,1,11,11v152a11,11,0,0,1-11,11H363a11,11,0,0,1-11-11v-152a11,11,0,0,1,11-11h16m0-1H363a12,12,0,0,0-12,12v152a12,12,0,0,0,12,12h16a12,12,0,0,0,12-12v-152a12,12,0,0,0-12-12Z"/>
		<rect class="cls-14" x="390.5" y="6.13" width="39" height="175" rx="11.5" ry="11.5"/><path d="M418,6.63a11,11,0,0,1,11,11v152a11,11,0,0,1-11,11H402a11,11,0,0,1-11-11v-152a11,11,0,0,1,11-11h16m0-1H402a12,12,0,0,0-12,12v152a12,12,0,0,0,12,12h16a12,12,0,0,0,12-12v-152a12,12,0,0,0-12-12Z"/>
		<rect class="cls-15" x="180.5" y="0.5" width="29" height="92" rx="11.5" ry="11.5"/><path d="M198,1a11,11,0,0,1,11,11V81a11,11,0,0,1-11,11h-6a11,11,0,0,1-11-11V12A11,11,0,0,1,192,1h6m0-1h-6a12,12,0,0,0-12,12V81a12,12,0,0,0,12,12h6a12,12,0,0,0,12-12V12A12,12,0,0,0,198,0Z"/>
		<rect class="cls-16" x="219.5" y="0.5" width="29" height="92" rx="11.5" ry="11.5"/><path d="M237,1a11,11,0,0,1,11,11V81a11,11,0,0,1-11,11h-6a11,11,0,0,1-11-11V12A11,11,0,0,1,231,1h6m0-1h-6a12,12,0,0,0-12,12V81a12,12,0,0,0,12,12h6a12,12,0,0,0,12-12V12A12,12,0,0,0,237,0Z"/>
		<rect class="cls-17" x="298.5" y="0.5" width="29" height="92" rx="11.5" ry="11.5"/><path d="M316,1a11,11,0,0,1,11,11V81a11,11,0,0,1-11,11h-6a11,11,0,0,1-11-11V12A11,11,0,0,1,310,1h6m0-1h-6a12,12,0,0,0-12,12V81a12,12,0,0,0,12,12h6a12,12,0,0,0,12-12V12A12,12,0,0,0,316,0Z"/>
		<rect class="cls-18" x="337.5" y="0.5" width="29" height="92" rx="11.5" ry="11.5"/><path d="M355,1a11,11,0,0,1,11,11V81a11,11,0,0,1-11,11h-6a11,11,0,0,1-11-11V12A11,11,0,0,1,349,1h6m0-1h-6a12,12,0,0,0-12,12V81a12,12,0,0,0,12,12h6a12,12,0,0,0,12-12V12A12,12,0,0,0,355,0Z"/>
		<rect class="cls-19" x="376.5" y="0.5" width="29" height="92" rx="11.5" ry="11.5"/><path d="M394,1a11,11,0,0,1,11,11V81a11,11,0,0,1-11,11h-6a11,11,0,0,1-11-11V12A11,11,0,0,1,388,1h6m0-1h-6a12,12,0,0,0-12,12V81a12,12,0,0,0,12,12h6a12,12,0,0,0,12-12V12A12,12,0,0,0,394,0Z"/>
		<rect class="cls-20" x="429.5" y="6.13" width="39" height="175" rx="11.5" ry="11.5"/><path d="M457,6.63a11,11,0,0,1,11,11v152a11,11,0,0,1-11,11H441a11,11,0,0,1-11-11v-152a11,11,0,0,1,11-11h16m0-1H441a12,12,0,0,0-12,12v152a12,12,0,0,0,12,12h16a12,12,0,0,0,12-12v-152a12,12,0,0,0-12-12Z"/>
		<rect class="cls-21" x="468.5" y="6.13" width="39" height="175" rx="11.5" ry="11.5"/><path d="M496,6.63a11,11,0,0,1,11,11v152a11,11,0,0,1-11,11H480a11,11,0,0,1-11-11v-152a11,11,0,0,1,11-11h16m0-1H480a12,12,0,0,0-12,12v152a12,12,0,0,0,12,12h16a12,12,0,0,0,12-12v-152a12,12,0,0,0-12-12Z"/>
		<rect class="cls-22" x="507.5" y="6.13" width="39" height="175" rx="11.5" ry="11.5"/><path d="M535,6.63a11,11,0,0,1,11,11v152a11,11,0,0,1-11,11H519a11,11,0,0,1-11-11v-152a11,11,0,0,1,11-11h16m0-1H519a12,12,0,0,0-12,12v152a12,12,0,0,0,12,12h16a12,12,0,0,0,12-12v-152a12,12,0,0,0-12-12Z"/>
		<rect class="cls-23" x="546.5" y="6.13" width="39" height="175" rx="11.5" ry="11.5"/><path d="M574,6.63a11,11,0,0,1,11,11v152a11,11,0,0,1-11,11H558a11,11,0,0,1-11-11v-152a11,11,0,0,1,11-11h16m0-1H558a12,12,0,0,0-12,12v152a12,12,0,0,0,12,12h16a12,12,0,0,0,12-12v-152a12,12,0,0,0-12-12Z"/>
		<rect class="cls-24" x="585.5" y="6.13" width="39" height="175" rx="11.5" ry="11.5"/><path d="M613,6.63a11,11,0,0,1,11,11v152a11,11,0,0,1-11,11H597a11,11,0,0,1-11-11v-152a11,11,0,0,1,11-11h16m0-1H597a12,12,0,0,0-12,12v152a12,12,0,0,0,12,12h16a12,12,0,0,0,12-12v-152a12,12,0,0,0-12-12Z"/>
		<rect class="cls-25" x="624.5" y="6.13" width="39" height="175" rx="11.5" ry="11.5"/><path d="M652,6.63a11,11,0,0,1,11,11v152a11,11,0,0,1-11,11H636a11,11,0,0,1-11-11v-152a11,11,0,0,1,11-11h16m0-1H636a12,12,0,0,0-12,12v152a12,12,0,0,0,12,12h16a12,12,0,0,0,12-12v-152a12,12,0,0,0-12-12Z"/>
		<rect class="cls-26" x="663.5" y="6.13" width="39" height="175" rx="11.5" ry="11.5"/><path d="M691,6.63a11,11,0,0,1,11,11v152a11,11,0,0,1-11,11H675a11,11,0,0,1-11-11v-152a11,11,0,0,1,11-11h16m0-1H675a12,12,0,0,0-12,12v152a12,12,0,0,0,12,12h16a12,12,0,0,0,12-12v-152a12,12,0,0,0-12-12Z"/>
		<rect class="cls-27" x="453.5" y="0.5" width="29" height="92" rx="11.5" ry="11.5"/><path d="M471,1a11,11,0,0,1,11,11V81a11,11,0,0,1-11,11h-6a11,11,0,0,1-11-11V12A11,11,0,0,1,465,1h6m0-1h-6a12,12,0,0,0-12,12V81a12,12,0,0,0,12,12h6a12,12,0,0,0,12-12V12A12,12,0,0,0,471,0Z"/>
		<rect class="cls-28" x="492.5" y="0.5" width="29" height="92" rx="11.5" ry="11.5"/><path d="M510,1a11,11,0,0,1,11,11V81a11,11,0,0,1-11,11h-6a11,11,0,0,1-11-11V12A11,11,0,0,1,504,1h6m0-1h-6a12,12,0,0,0-12,12V81a12,12,0,0,0,12,12h6a12,12,0,0,0,12-12V12A12,12,0,0,0,510,0Z"/>
		<rect class="cls-29" x="571.5" y="0.5" width="29" height="92" rx="11.5" ry="11.5"/><path d="M589,1a11,11,0,0,1,11,11V81a11,11,0,0,1-11,11h-6a11,11,0,0,1-11-11V12A11,11,0,0,1,583,1h6m0-1h-6a12,12,0,0,0-12,12V81a12,12,0,0,0,12,12h6a12,12,0,0,0,12-12V12A12,12,0,0,0,589,0Z"/>
		<rect class="cls-30" x="610.5" y="0.5" width="29" height="92" rx="11.5" ry="11.5"/><path d="M628,1a11,11,0,0,1,11,11V81a11,11,0,0,1-11,11h-6a11,11,0,0,1-11-11V12A11,11,0,0,1,622,1h6m0-1h-6a12,12,0,0,0-12,12V81a12,12,0,0,0,12,12h6a12,12,0,0,0,12-12V12A12,12,0,0,0,628,0Z"/>
		<rect class="cls-31" x="649.5" y="0.5" width="29" height="92" rx="11.5" ry="11.5"/><path d="M667,1a11,11,0,0,1,11,11V81a11,11,0,0,1-11,11h-6a11,11,0,0,1-11-11V12A11,11,0,0,1,661,1h6m0-1h-6a12,12,0,0,0-12,12V81a12,12,0,0,0,12,12h6a12,12,0,0,0,12-12V12A12,12,0,0,0,667,0Z"/>
		</g></g></svg>